<?xml version="1.0" standalone="no"?>
<!DOCTYPE svg PUBLIC "-//W3C//DTD SVG 20010904//EN"
 "http://www.w3.org/TR/2001/REC-SVG-20010904/DTD/svg10.dtd">
<svg version="1.0" xmlns="http://www.w3.org/2000/svg"
 width="1536.000000pt" height="1536.000000pt" viewBox="0 0 1536.000000 1536.000000"
 preserveAspectRatio="xMidYMid meet">
<metadata>
Created by potrace 1.14, written by Peter Selinger 2001-2017
</metadata>
<g transform="translate(0.000000,1536.000000) scale(0.100000,-0.100000)"
fill="#000000" stroke="none">
<path d="M15070 10588 c0 -4 15 -5 33 -1 46 8 48 14 4 11 -20 -1 -37 -6 -37
-10z"/>
<path d="M14906 10583 c-1 -2 -47 -5 -102 -8 -109 -6 -161 -10 -244 -19 -30
-2 -91 -8 -135 -11 -44 -4 -96 -8 -115 -10 -19 -2 -71 -7 -115 -10 -44 -3 -99
-8 -122 -11 -24 -3 -69 -7 -100 -9 -32 -3 -74 -7 -93 -9 -62 -8 -144 -17 -192
-21 -26 -2 -52 -6 -57 -10 -6 -3 -11 -1 -11 5 0 7 -7 7 -22 -1 -13 -7 -24 -11
-26 -10 -2 3 -42 -1 -172 -14 -91 -10 -138 -15 -155 -19 -11 -2 -51 -7 -90
-12 -91 -10 -110 -12 -110 -14 0 -1 -20 -3 -45 -5 -25 -2 -63 -6 -85 -9 -22
-3 -56 -8 -75 -11 -19 -3 -57 -7 -85 -11 -27 -3 -52 -7 -55 -9 -3 -1 -39 -6
-80 -10 -41 -4 -78 -9 -81 -11 -3 -1 -28 -6 -55 -9 -78 -10 -118 -15 -139 -19
-11 -2 -42 -7 -70 -10 -27 -4 -104 -16 -170 -26 -66 -11 -136 -22 -155 -24
-19 -3 -73 -12 -120 -20 -47 -8 -101 -17 -120 -20 -19 -3 -60 -9 -90 -15 -30
-6 -71 -13 -90 -16 -19 -3 -42 -8 -50 -10 -8 -2 -31 -6 -50 -9 -39 -6 -68 -11
-150 -27 -30 -6 -66 -12 -80 -15 -14 -2 -47 -9 -75 -14 -27 -5 -61 -12 -75
-14 -14 -2 -74 -14 -135 -26 -60 -12 -119 -24 -130 -26 -11 -2 -43 -8 -71 -14
-28 -6 -64 -13 -80 -16 -16 -3 -45 -9 -64 -14 -19 -5 -51 -12 -70 -15 -19 -3
-51 -10 -70 -15 -19 -5 -46 -11 -60 -14 -65 -12 -217 -45 -230 -50 -8 -3 -28
-7 -45 -10 -16 -3 -88 -20 -160 -36 -71 -17 -141 -33 -155 -36 -14 -3 -56 -14
-95 -24 -38 -10 -82 -21 -96 -23 -46 -9 -746 -192 -779 -204 -18 -7 -40 -13
-60 -17 -8 -1 -22 -5 -30 -8 -14 -6 -363 -107 -385 -112 -5 -1 -26 -7 -45 -13
-19 -7 -96 -30 -170 -53 -74 -23 -142 -44 -150 -47 -8 -3 -20 -7 -26 -8 -40
-9 -251 -79 -261 -88 -7 -5 -13 -7 -13 -4 0 3 -60 -15 -132 -40 -73 -24 -137
-46 -143 -47 -5 -2 -17 -6 -25 -9 -8 -3 -31 -11 -50 -17 -19 -7 -84 -30 -145
-51 -60 -22 -117 -41 -125 -43 -14 -4 -164 -59 -205 -76 -11 -4 -58 -22 -105
-39 -47 -17 -98 -36 -115 -43 -16 -6 -33 -12 -37 -13 -5 -2 -10 -4 -13 -5 -3
-1 -8 -3 -12 -5 -5 -1 -19 -6 -33 -12 -14 -6 -79 -32 -145 -57 -66 -26 -138
-54 -160 -64 -21 -9 -42 -17 -45 -18 -3 0 -14 -4 -25 -9 -55 -22 -306 -126
-335 -138 -14 -5 -28 -10 -32 -9 -5 1 -8 -2 -8 -8 0 -5 -9 -10 -19 -10 -11 0
-22 -4 -25 -9 -3 -5 -17 -12 -32 -15 -14 -4 -59 -22 -101 -41 -41 -19 -76 -35
-79 -35 -2 0 -32 -13 -66 -29 -35 -16 -108 -50 -163 -74 -380 -170 -904 -428
-1325 -654 -53 -28 -111 -60 -130 -70 -19 -10 -36 -21 -38 -25 -2 -5 -8 -8
-14 -8 -7 0 -218 -118 -448 -251 -14 -8 -28 -18 -32 -24 -4 -5 -8 -6 -8 -1 0
5 -8 2 -17 -6 -10 -8 -67 -44 -128 -80 -60 -36 -136 -81 -167 -101 -31 -21
-61 -37 -67 -37 -5 0 -11 -3 -13 -8 -1 -4 -39 -30 -83 -57 -179 -110 -547
-353 -716 -473 -36 -26 -88 -62 -115 -81 -67 -47 -338 -244 -344 -251 -3 -3
-32 -25 -65 -50 -33 -24 -64 -48 -70 -52 -5 -5 -28 -22 -50 -39 -22 -16 -47
-36 -56 -43 -10 -8 -48 -38 -85 -67 -38 -30 -74 -58 -81 -64 -7 -5 -18 -14
-25 -20 -7 -5 -38 -30 -68 -55 -30 -25 -64 -52 -75 -61 -58 -48 -183 -153
-205 -173 -14 -12 -61 -53 -105 -91 -132 -115 -147 -128 -300 -270 -59 -55
-143 -134 -185 -175 -43 -41 -121 -115 -174 -165 -53 -49 -96 -92 -96 -95 0
-3 400 -5 890 -5 l889 0 192 185 c219 212 258 249 364 345 43 39 92 84 110
100 18 17 46 41 62 55 15 14 62 54 103 90 41 36 88 76 104 90 16 14 34 30 40
35 6 6 38 33 71 60 33 28 65 55 71 60 25 23 109 91 127 104 12 8 28 22 37 30
9 9 34 30 55 47 137 109 245 194 280 219 22 17 42 32 45 35 3 4 23 19 45 35
22 17 42 32 45 35 8 9 271 203 345 255 39 27 75 54 82 60 6 5 41 30 78 55 36
25 85 59 108 76 45 33 508 344 513 344 2 0 85 54 124 80 11 8 283 176 420 259
8 6 83 49 165 97 83 48 168 99 190 113 22 14 46 26 54 27 8 2 17 6 20 11 3 4
20 15 36 24 17 10 55 31 85 48 30 17 75 41 100 53 25 13 47 25 50 28 8 8 147
82 335 179 50 25 92 48 95 51 11 11 610 305 770 378 25 11 94 43 153 71 60 28
110 51 112 51 2 0 32 13 67 29 132 60 178 80 343 150 94 39 179 76 190 81 11
5 43 18 70 29 28 11 68 27 90 37 22 10 45 18 50 20 6 1 33 12 60 24 27 12 54
23 60 25 11 2 16 4 143 56 51 21 96 39 100 40 9 2 39 13 82 31 19 8 38 16 42
17 11 2 31 10 116 42 39 15 72 25 72 22 0 -3 6 -1 13 5 10 9 92 40 187 72 14
5 49 17 78 28 28 11 52 18 52 15 0 -3 6 -1 13 4 10 8 86 37 132 50 6 1 125 41
265 89 140 47 262 87 270 89 8 2 16 4 18 5 1 2 5 3 10 4 4 1 52 16 107 34 254
80 555 170 594 178 14 3 28 7 33 10 6 4 84 26 133 38 6 2 30 9 55 16 53 16 57
17 90 25 30 7 32 8 90 24 25 7 52 15 60 17 8 2 58 15 110 29 52 14 104 27 115
30 11 2 101 25 200 50 99 25 189 47 200 49 11 3 20 5 20 6 0 1 11 4 25 6 14 3
43 9 65 15 22 6 49 13 60 15 11 2 29 6 40 9 21 5 211 49 280 64 22 5 49 12 60
14 18 5 151 33 200 43 11 2 45 9 75 15 30 6 62 13 70 14 8 2 15 4 15 5 0 1 9
3 20 4 16 3 136 26 365 71 14 3 39 7 55 10 17 3 53 10 80 15 66 13 102 19 145
26 19 3 42 7 51 10 9 2 34 7 55 10 22 2 46 6 54 9 8 3 31 7 50 9 34 5 60 9
130 21 19 4 49 8 65 11 17 2 41 5 55 8 33 7 203 33 260 41 25 3 56 8 70 10 39
7 80 13 139 20 30 4 63 9 75 11 24 5 100 15 136 19 14 2 52 6 85 9 33 4 71 9
85 11 14 3 45 7 70 10 25 3 63 8 85 11 22 3 65 7 95 9 30 3 66 7 80 9 14 3 54
8 90 11 91 9 89 16 -3 13 -43 -1 -79 -3 -81 -5z"/>
<path d="M156 8423 c16 -13 76 -58 134 -100 58 -43 107 -81 108 -85 2 -4 8 -8
13 -8 11 0 92 -60 97 -72 2 -5 8 -8 13 -8 5 0 17 -6 26 -14 26 -21 202 -151
241 -178 18 -13 39 -28 45 -33 7 -6 34 -26 62 -45 27 -19 56 -41 65 -47 8 -7
132 -98 275 -202 143 -105 265 -194 270 -199 6 -5 80 -59 165 -121 85 -62 165
-120 177 -129 12 -9 65 -48 119 -87 53 -38 118 -87 145 -107 27 -21 51 -38 55
-38 4 0 12 -7 18 -16 10 -13 29 -4 140 70 71 47 130 86 132 86 2 0 29 17 61
39 103 68 154 101 158 101 2 0 43 25 90 55 46 30 87 55 90 55 3 0 11 5 18 11
7 5 74 46 150 91 75 44 137 84 137 88 0 6 -73 60 -129 95 -9 6 -18 13 -21 16
-3 3 -34 26 -70 50 -65 44 -91 63 -115 87 -8 6 -18 12 -24 12 -6 0 -11 3 -11
8 0 4 -9 12 -19 17 -22 11 -293 205 -301 215 -3 4 -20 15 -37 25 -18 11 -33
23 -33 27 0 4 -4 8 -10 8 -5 0 -29 15 -53 33 -24 17 -56 41 -71 52 -15 11 -48
35 -71 53 -24 17 -48 32 -54 32 -5 0 -11 4 -13 8 -3 8 -141 110 -213 157 -29
20 -51 20 -909 21 l-879 1 29 -24z"/>
<path d="M4430 6532 c-42 -27 -225 -155 -230 -161 -3 -4 -25 -20 -50 -36 -25
-17 -49 -33 -55 -38 -5 -4 -28 -21 -50 -37 -22 -16 -45 -33 -50 -37 -6 -5 -28
-21 -50 -37 -22 -17 -42 -33 -45 -36 -3 -3 -18 -14 -35 -24 -16 -11 -34 -23
-40 -28 -52 -44 -248 -188 -255 -188 -25 0 -4 -23 73 -80 45 -33 90 -67 100
-75 9 -8 19 -15 22 -15 3 0 106 -75 155 -113 14 -11 78 -58 304 -221 44 -32
83 -62 84 -67 2 -5 10 -9 18 -9 8 0 14 -4 14 -10 0 -5 6 -10 14 -10 8 0 16 -3
18 -8 2 -4 37 -32 78 -62 41 -30 77 -58 78 -62 2 -5 8 -8 13 -8 7 0 185 -128
309 -223 9 -7 38 -28 65 -46 28 -19 52 -37 55 -41 3 -3 39 -30 80 -60 l75 -54
888 -1 889 0 -29 23 c-15 13 -48 37 -73 54 -25 18 -47 34 -50 37 -3 4 -45 35
-95 71 -49 35 -94 68 -100 73 -5 4 -53 39 -105 77 -52 38 -103 75 -112 83 -9
9 -27 21 -40 28 -13 6 -25 15 -28 18 -3 4 -30 24 -60 46 -30 22 -61 45 -68 52
-7 7 -26 20 -42 30 -17 9 -30 21 -30 25 0 4 -5 8 -10 8 -6 0 -34 18 -63 40
-63 48 -55 42 -147 111 -41 31 -151 111 -245 179 -151 110 -201 146 -242 180
-7 6 -17 10 -23 10 -5 0 -10 3 -10 8 0 4 -17 18 -37 32 -21 14 -45 30 -53 37
-31 25 -188 141 -236 173 -27 19 -55 40 -64 47 -46 38 -192 143 -200 143 -4 0
-10 4 -12 8 -1 5 -55 46 -118 92 -63 46 -124 91 -135 101 -19 16 -22 16 -45 1z"/>
</g>
</svg>
