<?xml version="1.0" encoding="UTF-8"?>
<svg version="1.1" xmlns="http://www.w3.org/2000/svg" width="1041" height="112">
<path d="M0 0 C19.14527166 -0.08021762 19.14527166 -0.08021762 27.3359375 -0.09765625 C32.91442695 -0.10958981 38.49285045 -0.12367418 44.07128906 -0.15087891 C48.57112855 -0.17268504 53.07089725 -0.18458498 57.57078552 -0.18975449 C59.28349419 -0.19343632 60.9961992 -0.20062592 62.70887756 -0.21146011 C65.11654896 -0.22607848 67.52393165 -0.22797365 69.93164062 -0.22705078 C70.63223602 -0.23424133 71.33283142 -0.24143188 72.05465698 -0.24884033 C79.57909614 -0.21783911 86.05523625 1.16123881 92 6 C97.00441722 12.21651828 95.92687733 21.19105676 95.35351562 28.74755859 C94.71506107 32.81550178 92.99303136 35.16828779 89.92578125 37.79296875 C84.88553637 40.95206747 79.8002272 41.3999765 74 42 C74.54527344 42.59425781 75.09054687 43.18851563 75.65234375 43.80078125 C90.93434886 60.59792532 90.93434886 60.59792532 94 67 C73.2913236 69.36013553 73.2913236 69.36013553 66.73339844 65.75341797 C62.87883451 62.44648047 60.14517569 58.35201818 57.41503906 54.10449219 C55.09212813 50.64978338 52.32124233 47.60886251 49.5625 44.5 C48.17346876 42.88447313 46.7916105 41.26304667 45.41064453 39.640625 C44.39079084 38.45450233 43.3589476 37.27865304 42.31982422 36.109375 C41.76955566 35.48546875 41.21928711 34.8615625 40.65234375 34.21875 C40.14566162 33.65091797 39.63897949 33.08308594 39.11694336 32.49804688 C38 31 38 31 38 29 C39.04978027 28.98018066 40.09956055 28.96036133 41.18115234 28.93994141 C45.06893261 28.86397802 48.95633403 28.77524702 52.84375 28.68261719 C54.52759329 28.64428896 56.21151955 28.60944288 57.89550781 28.578125 C60.31345306 28.53255713 62.73082528 28.47455077 65.1484375 28.4140625 C66.28132706 28.39673569 66.28132706 28.39673569 67.43710327 28.37905884 C71.67825198 28.39669934 71.67825198 28.39669934 75 26 C75.28129466 23.3656065 75.28129466 23.3656065 75.1875 20.4375 C75.18105469 19.44621094 75.17460938 18.45492187 75.16796875 17.43359375 C75.27125434 15.05234128 75.27125434 15.05234128 74 14 C72.34355634 13.87709282 70.68201007 13.82216092 69.02124023 13.79467773 C67.94531616 13.77449585 66.86939209 13.75431396 65.76086426 13.73352051 C64.05199036 13.70880676 64.05199036 13.70880676 62.30859375 13.68359375 C61.26771606 13.66494263 60.22683838 13.6462915 59.15441895 13.6270752 C55.24886946 13.55853687 51.34317384 13.4985422 47.4375 13.4375 C34.3509375 13.2209375 34.3509375 13.2209375 21 13 C21 30.82 21 48.64 21 67 C14.07 67 7.14 67 0 67 C0 44.89 0 22.78 0 0 Z " fill="#000000" transform="translate(663,41)"/>
<path d="M0 0 C19.14527166 -0.08021762 19.14527166 -0.08021762 27.3359375 -0.09765625 C32.91442695 -0.10958981 38.49285045 -0.12367418 44.07128906 -0.15087891 C48.57112855 -0.17268504 53.07089725 -0.18458498 57.57078552 -0.18975449 C59.28349419 -0.19343632 60.9961992 -0.20062592 62.70887756 -0.21146011 C65.11654896 -0.22607848 67.52393165 -0.22797365 69.93164062 -0.22705078 C70.63223602 -0.23424133 71.33283142 -0.24143188 72.05465698 -0.24884033 C79.57909614 -0.21783911 86.05523625 1.16123881 92 6 C97.00441722 12.21651828 95.92687733 21.19105676 95.35351562 28.74755859 C94.71506107 32.81550178 92.99303136 35.16828779 89.92578125 37.79296875 C84.88553637 40.95206747 79.8002272 41.3999765 74 42 C74.54527344 42.59425781 75.09054688 43.18851563 75.65234375 43.80078125 C90.93434886 60.59792532 90.93434886 60.59792532 94 67 C73.2913236 69.36013553 73.2913236 69.36013553 66.73339844 65.75341797 C62.87883451 62.44648047 60.14517569 58.35201818 57.41503906 54.10449219 C55.09212813 50.64978338 52.32124233 47.60886251 49.5625 44.5 C48.17346876 42.88447313 46.7916105 41.26304667 45.41064453 39.640625 C44.39079084 38.45450233 43.3589476 37.27865304 42.31982422 36.109375 C41.76955566 35.48546875 41.21928711 34.8615625 40.65234375 34.21875 C40.14566162 33.65091797 39.63897949 33.08308594 39.11694336 32.49804688 C38 31 38 31 38 29 C39.04978027 28.98018066 40.09956055 28.96036133 41.18115234 28.93994141 C45.06893261 28.86397802 48.95633403 28.77524702 52.84375 28.68261719 C54.52759329 28.64428896 56.21151955 28.60944288 57.89550781 28.578125 C60.31345306 28.53255713 62.73082528 28.47455077 65.1484375 28.4140625 C66.28132706 28.39673569 66.28132706 28.39673569 67.43710327 28.37905884 C71.67825198 28.39669934 71.67825198 28.39669934 75 26 C75.28129466 23.3656065 75.28129466 23.3656065 75.1875 20.4375 C75.18105469 19.44621094 75.17460937 18.45492187 75.16796875 17.43359375 C75.27125434 15.05234128 75.27125434 15.05234128 74 14 C72.34355634 13.87709282 70.68201007 13.82216092 69.02124023 13.79467773 C67.94531616 13.77449585 66.86939209 13.75431396 65.76086426 13.73352051 C64.05199036 13.70880676 64.05199036 13.70880676 62.30859375 13.68359375 C61.26771606 13.66494263 60.22683838 13.6462915 59.15441895 13.6270752 C55.24886946 13.55853687 51.34317384 13.4985422 47.4375 13.4375 C34.3509375 13.2209375 34.3509375 13.2209375 21 13 C21 30.82 21 48.64 21 67 C14.07 67 7.14 67 0 67 C0 44.89 0 22.78 0 0 Z " fill="#000000" transform="translate(113,41)"/>
<path d="M0 0 C6.93 0 13.86 0 21 0 C21 8.91 21 17.82 21 27 C24.48789206 25.15548285 27.97542831 23.3105755 31.46044922 21.46069336 C34.42237474 19.89019114 37.39070154 18.33274307 40.36376953 16.78344727 C49.38754295 12.11301057 49.38754295 12.11301057 57.9375 6.64453125 C71.97949515 -3.17878072 88.58174807 -0.91887926 105 0 C102.42780205 2.96393434 99.5065929 4.45304613 96.03125 6.22265625 C95.44244553 6.52468964 94.85364105 6.82672302 94.24699402 7.13790894 C92.33393554 8.11796819 90.4169984 9.0901735 88.5 10.0625 C87.18691719 10.73379434 85.87417424 11.40575387 84.56176758 12.07836914 C82.58825671 13.08979403 80.61459073 14.10089341 78.6398468 15.10990906 C72.96641851 18.00967516 67.32094331 20.96078767 61.6875 23.9375 C60.89472656 24.35588135 60.10195313 24.7742627 59.28515625 25.20532227 C57.5229204 26.13590295 55.76136444 27.067771 54 28 C56.41400183 30.63354706 59.04477628 32.43018459 62.05859375 34.3359375 C63.0751001 34.98199951 64.09160645 35.62806152 65.13891602 36.29370117 C66.22744873 36.98052979 67.31598145 37.6673584 68.4375 38.375 C70.70674729 39.81480538 72.97435062 41.2571932 75.2421875 42.69921875 C75.81209915 43.06104752 76.3820108 43.42287628 76.9691925 43.79566956 C83.16279202 47.73071306 89.31025077 51.73556551 95.45288086 55.74951172 C96.20190674 56.23822754 96.95093262 56.72694336 97.72265625 57.23046875 C98.4305127 57.69372559 99.13836914 58.15698242 99.86767578 58.63427734 C102.72482935 60.46424266 105.63805907 62.19806242 108.56420898 63.9152832 C109.03802002 64.27323975 109.51183105 64.63119629 110 65 C110 65.66 110 66.32 110 67 C75.29989778 68.98408396 75.29989778 68.98408396 63.26904297 58.85595703 C58.68875572 55.10952453 53.85386648 51.71659435 48.996521 48.34295654 C47.21747064 47.08371374 45.48574024 45.77422327 43.75048828 44.45556641 C40.62323847 42.18618637 37.67724064 40.29062716 34 39 C29.71458624 39.82570215 26.63066855 41.66123087 23 44 C22.34 44 21.68 44 21 44 C21 51.59 21 59.18 21 67 C14.07 67 7.14 67 0 67 C0 44.89 0 22.78 0 0 Z " fill="#000000" transform="translate(436,41)"/>
<path d="M0 0 C-3.49666152 2.33110768 -5.82739068 2.60944423 -9.97265625 3.2265625 C-11.42701484 3.45096868 -12.88127486 3.67601442 -14.33544922 3.90161133 C-15.10467712 4.01872467 -15.87390503 4.13583801 -16.66644287 4.25650024 C-86.39865406 14.98091182 -161.28733447 37.95356054 -216 84 C-216.59248535 84.49242188 -217.1849707 84.98484375 -217.79541016 85.4921875 C-219.64127144 87.02853679 -221.47888991 88.57405496 -223.3125 90.125 C-223.85132813 90.57955566 -224.39015625 91.03411133 -224.9453125 91.50244141 C-225.47511719 91.95796387 -226.00492188 92.41348633 -226.55078125 92.8828125 C-227.10660889 93.35436768 -227.66243652 93.82592285 -228.23510742 94.31176758 C-230.10860367 96.02297336 -230.10860367 96.02297336 -231.8371582 98.3503418 C-235.16825084 102.39146325 -237.46415729 104.7025774 -242.71655273 105.71972656 C-247.01026205 105.99274568 -251.27131878 105.78845137 -255.5625 105.5625 C-257.06303008 105.51727499 -258.56369209 105.47622447 -260.06445312 105.43945312 C-263.71241225 105.3410779 -267.35534711 105.18626032 -271 105 C-266.17931954 94.65505832 -252.95651187 86.77505586 -244 80 C-243.3311377 79.49065918 -242.66227539 78.98131836 -241.97314453 78.45654297 C-222.9591643 64.0619536 -202.27242697 52.68827327 -181 42 C-180.26007813 41.62536621 -179.52015625 41.25073242 -178.7578125 40.86474609 C-134.27531738 18.50809584 -83.50021475 5.2527657 -34 1 C-32.76121094 0.88914063 -31.52242187 0.77828125 -30.24609375 0.6640625 C-20.16249355 -0.12722744 -10.10616144 -0.09790684 0 0 Z " fill="#000000" transform="translate(1038,3)"/>
<path d="M0 0 C1.21508743 -0.00637985 2.43017487 -0.0127597 3.68208313 -0.01933289 C5.63999031 -0.02100212 5.63999031 -0.02100212 7.63745117 -0.02270508 C9.00119562 -0.02592215 10.36493973 -0.02928656 11.72868347 -0.03279114 C14.5841044 -0.03876809 17.43949513 -0.04063256 20.29492188 -0.04003906 C23.93620899 -0.03993762 27.57730033 -0.05357767 31.21854115 -0.07081127 C34.03513969 -0.08198485 36.85169174 -0.08395662 39.66831017 -0.08342934 C41.65786054 -0.08516829 43.64739641 -0.09597587 45.63691711 -0.10697937 C54.86241208 -0.08380059 62.35615968 0.20573231 69.86791992 6.14526367 C72.28428286 8.8032629 72.86791992 9.498207 72.86791992 13.14526367 C48.44791992 13.14526367 24.02791992 13.14526367 -1.13208008 13.14526367 C-1.13208008 27.00526367 -1.13208008 40.86526367 -1.13208008 55.14526367 C23.28791992 55.14526367 47.70791992 55.14526367 72.86791992 55.14526367 C70.75343476 61.48871914 70.40372002 62.22069004 64.86791992 65.14526367 C60.20218265 66.69307086 56.14044614 67.39964583 51.23339844 67.41992188 C49.95839981 67.42945389 48.68340118 67.4389859 47.36976624 67.44880676 C45.9954526 67.4485453 44.62113895 67.44760808 43.24682617 67.44604492 C41.81867856 67.44993839 40.39053209 67.45427439 38.96238708 67.45903015 C35.97765336 67.46646584 32.99303799 67.46622029 30.00830078 67.4609375 C26.20105438 67.455144 22.39429465 67.47208345 18.58712864 67.49528217 C15.64012362 67.51007943 12.69323425 67.51088316 9.74619865 67.50777245 C8.34330214 67.50828257 6.94039862 67.51346185 5.53753853 67.52358437 C-3.48367201 67.58070212 -10.30431587 67.29380554 -18.00708008 62.27026367 C-22.82310484 57.45423891 -22.45202952 51.91035252 -22.46801758 45.49682617 C-22.47467438 44.56607269 -22.48133118 43.63531921 -22.4881897 42.67636108 C-22.49829478 40.71126272 -22.50300738 38.74613018 -22.50268555 36.78100586 C-22.50705527 33.78726177 -22.54338794 30.79499685 -22.58129883 27.80151367 C-22.58716827 25.88745619 -22.59113681 23.97339173 -22.59301758 22.05932617 C-22.60738861 21.17056793 -22.62175964 20.28180969 -22.63656616 19.36611938 C-22.59343579 13.44864675 -21.5363312 10.01452934 -18.13208008 5.14526367 C-12.91593751 0.5942668 -6.64376891 0.02375251 0 0 Z " fill="#000000" transform="translate(349.132080078125,40.854736328125)"/>
<path d="M0 0 C31.02 0 62.04 0 94 0 C94 4.29 94 8.58 94 13 C82.12 13 70.24 13 58 13 C58 30.82 58 48.64 58 67 C51.07 67 44.14 67 37 67 C37 49.18 37 31.36 37 13 C24.79 13 12.58 13 0 13 C0 8.71 0 4.42 0 0 Z " fill="#000000" transform="translate(3,41)"/>
<path d="M0 0 C20.13 0 40.26 0 61 0 C61 4.29 61 8.58 61 13 C47.47 13 33.94 13 20 13 C20 19.6 20 26.2 20 33 C43.1 33 66.2 33 90 33 C90 36.96 90 40.92 90 45 C60.3 45 30.6 45 0 45 C0 30.15 0 15.3 0 0 Z " fill="#000000" transform="translate(556,63)"/>
<path d="M0 0 C0.66 0 1.32 0 2 0 C3.29003906 1.44262695 3.29003906 1.44262695 4.765625 3.48828125 C5.31847168 4.24737793 5.87131836 5.00647461 6.44091797 5.78857422 C7.03791504 6.62146973 7.63491211 7.45436523 8.25 8.3125 C9.52854111 10.0716907 10.80718982 11.8308032 12.0859375 13.58984375 C12.73916992 14.49331543 13.39240234 15.39678711 14.06542969 16.32763672 C16.9827694 20.35757116 19.92597913 24.36821503 22.875 28.375 C23.44057617 29.14481201 24.00615234 29.91462402 24.58886719 30.70776367 C29.79979938 37.77776656 35.12664474 44.7578792 40.49560547 51.70849609 C52 66.68214326 52 66.68214326 52 70 C48.04482002 70.41133872 44.09512839 70.6564199 40.125 70.875 C39.01640625 70.99230469 37.9078125 71.10960938 36.765625 71.23046875 C33.06696865 71.38276636 30.47889549 71.31273817 27 70 C25.04248047 66.86962891 25.04248047 66.86962891 24.11199951 64.99554443 C22.24901085 61.28788479 20.49214633 58.35805877 17 56 C7.73644843 53.52017427 -2.44364847 54.31565017 -11.96392822 54.57513428 C-15.57723498 54.65850964 -19.19056446 54.66161584 -22.8046875 54.671875 C-29.87180304 54.70356926 -36.9348993 54.82327419 -44 55 C-43.40251953 54.31164062 -43.40251953 54.31164062 -42.79296875 53.609375 C-41.99826172 52.68898438 -41.99826172 52.68898438 -41.1875 51.75 C-40.62972366 51.11370667 -40.07194733 50.47741333 -39.49726868 49.82183838 C-37.89649997 47.99795251 -37.89649997 47.99795251 -36.73120117 45.60058594 C-33.60417327 42.70948525 -29.38233588 43.39604583 -25.30078125 43.390625 C-24.35059616 43.37408875 -23.40041107 43.35755249 -22.4214325 43.34051514 C-19.38505674 43.29191041 -16.34918223 43.27063648 -13.3125 43.25 C-11.2545319 43.22185076 -9.19658728 43.19192482 -7.13867188 43.16015625 C-2.09248916 43.08614803 2.95341324 43.0366496 8 43 C5.79225409 39.99956731 3.58369377 36.999735 1.375 34 C0.44880859 32.74123047 0.44880859 32.74123047 -0.49609375 31.45703125 C-4.3049107 26.28505875 -8.13581647 21.13074717 -12 16 C-10.17447238 12.1342994 -7.7314985 9.01218964 -5 5.75 C-4.54882812 5.19570313 -4.09765625 4.64140625 -3.6328125 4.0703125 C-2.46926971 2.67268418 -1.23905262 1.33114437 0 0 Z " fill="#000000" transform="translate(262,38)"/>
<path d="M0 0 C29.7 0 59.4 0 90 0 C90 4.29 90 8.58 90 13 C60.3 13 30.6 13 0 13 C0 8.71 0 4.42 0 0 Z " fill="#000000" transform="translate(556,41)"/>
<path d="M0 0 C2.28185273 0.88940084 3.95044016 1.98602302 5.90771484 3.45874023 C6.65537109 4.0159375 7.40302734 4.57313477 8.17333984 5.1472168 C8.97126953 5.75146484 9.76919922 6.35571289 10.59130859 6.97827148 C12.290407 8.24796379 13.98962956 9.51748997 15.68896484 10.78686523 C17.0021167 11.77275635 17.0021167 11.77275635 18.34179688 12.77856445 C22.71956721 16.05692018 27.12463088 19.29803215 31.52880859 22.54077148 C32.33519775 23.13656006 33.14158691 23.73234863 33.97241211 24.34619141 C34.72321045 24.90024658 35.47400879 25.45430176 36.24755859 26.02514648 C36.90691406 26.51208984 37.56626953 26.9990332 38.24560547 27.50073242 C39.81348845 28.63500045 41.41866314 29.71734118 43.02880859 30.79077148 C43.02880859 31.45077148 43.02880859 32.11077148 43.02880859 32.79077148 C10.32810293 35.4541244 10.32810293 35.4541244 -1.03369141 26.16577148 C-3.10800944 24.36518905 -5.10534529 22.52643877 -7.06152344 20.59838867 C-10.1326751 17.69135634 -13.53747565 15.24936895 -16.97119141 12.79077148 C-15.57900485 8.6142118 -12.61019159 6.99671332 -9.15869141 4.54077148 C-8.52898438 4.06897461 -7.89927734 3.59717773 -7.25048828 3.11108398 C-2.54022754 -0.26962782 -2.54022754 -0.26962782 0 0 Z " fill="#000000" transform="translate(845.97119140625,75.209228515625)"/>
<path d="M0 0 C31.59991097 -2.6633249 31.59991097 -2.6633249 43.3125 6.875 C45.4211009 8.68802365 47.45594195 10.52256321 49.4230957 12.48779297 C51.13074381 14.21394193 51.13074381 14.21394193 54 16 C52.86248207 19.41255379 52.34702901 19.69510839 49.40234375 21.48046875 C48.68369141 21.92197266 47.96503906 22.36347656 47.22460938 22.81835938 C46.09249023 23.49608398 46.09249023 23.49608398 44.9375 24.1875 C44.17888672 24.65091797 43.42027344 25.11433594 42.63867188 25.59179688 C40.76366817 26.73566706 38.88415078 27.87128255 37 29 C30.6881428 24.8741041 24.55680759 20.55323255 18.5 16.0625 C17.70980469 15.48048828 16.91960938 14.89847656 16.10546875 14.29882812 C13.7291188 12.5428183 11.36310556 10.77378429 9 9 C8.14277344 8.36304199 7.28554688 7.72608398 6.40234375 7.06982422 C5.16677734 6.13614014 5.16677734 6.13614014 3.90625 5.18359375 C3.15666016 4.6208374 2.40707031 4.05808105 1.63476562 3.47827148 C1.09529297 2.99044189 0.55582031 2.5026123 0 2 C0 1.34 0 0.68 0 0 Z " fill="#000000" transform="translate(769,41)"/>
</svg>
