<svg width="500" height="500" xmlns="http://www.w3.org/2000/svg">
 <g>
  <title>Layer 1</title>
  <g id="freepik--background-complete--inject-6">
   <path id="svg_1" fill="#f5f5f5" d="m124.85,359.34c-2,-2.1 -4.95,-2.9 -7.67,-3.9a41.21,41.21 0 0 1 -18.88,-63.18l-0.41,-2.11c-0.93,-9.86 -12.83,-16.92 -21.93,-13s-12.18,17.37 -5.68,24.85c-10.67,0.88 -17.73,13 -16.22,23.65s9.26,19.3 17.9,25.63a84.74,84.74 0 0 0 49.21,16.26a6.82,6.82 0 0 0 3.5,-0.63c2.5,-1.47 2.18,-5.46 0.18,-7.57z"/>
   <path id="svg_2" fill="#f5f5f5" d="m422.2,316.21c2.45,-4 2.8,-9.35 0.31,-13.31s-7.95,-5.95 -12.2,-4a8.93,8.93 0 0 0 -15.16,-9.45c-2.84,4.39 -1.34,10.28 1.1,14.91s5.79,9 6.59,14.13s-1.2,10.68 -4.36,15s-7.37,7.7 -11.54,11l-0.79,0.76a28.66,28.66 0 0 0 23,-2c3.92,-2.17 7.55,-5.76 7.81,-10.23c0.14,-2.5 -0.79,-5 -0.41,-7.48c0.51,-3.54 3.71,-6.18 5.65,-9.33z"/>
   <path id="svg_3" fill="#f5f5f5" d="m207.15,479.69c-3.89,-0.48 -7.79,-2.18 -10.08,-5.36c-1.46,-2 -2.17,-4.52 -3.44,-6.68s-3.48,-4.11 -6,-3.87c-3.86,0.38 -6.47,5.72 -10.24,4.78c-2.26,-0.57 -3.34,-3.23 -3.35,-5.56s0.66,-4.66 0.37,-7c-0.81,-6.51 -9.17,-9.71 -15.41,-7.67s-15.7,9.55 -19.77,14.7c4.28,7.11 13.05,9.87 21.09,11.89q20.25,5.07 40.85,8.61c3.22,0.55 6.51,1.08 9.73,0.57s6.43,-2.22 7.92,-5.12c-3.82,0.61 -7.82,1.2 -11.67,0.71z"/>
   <path id="svg_4" fill="#f5f5f5" d="m362,429.55c-1,-5.56 -6.54,-10.46 -12,-9.18c4.56,-3.76 4.59,-11.32 1,-16s-9.88,-6.71 -15.79,-6.53s-11.58,2.25 -17.06,4.45c2.69,-3.42 -1.25,-8.76 -5.59,-9s-8.23,2.47 -11.76,5s-7.59,5.16 -11.89,4.49l4,1.62c9.65,1.46 19.38,3.71 27.73,8.75s15.24,13.26 16.68,22.91s-3.64,20.45 -12.79,23.83a38.81,38.81 0 0 0 32.47,-14.68c3.44,-4.46 6,-10.11 5,-15.66z"/>
   <path id="svg_5" fill="#f5f5f5" d="m44.93,285.35a84.65,84.65 0 0 1 -0.26,-9.31a84.77,84.77 0 0 1 0.26,-9.32a81.89,81.89 0 0 1 0.26,9.32a81.78,81.78 0 0 1 -0.26,9.31z"/>
   <path id="svg_6" fill="#f5f5f5" d="m54.56,276a90.5,90.5 0 0 1 -9.63,0.26a90.39,90.39 0 0 1 -9.62,-0.26a87.31,87.31 0 0 1 9.62,-0.26a87.43,87.43 0 0 1 9.63,0.26z"/>
   <path id="svg_7" fill="#f5f5f5" d="m416.42,381.09a81.78,81.78 0 0 1 -0.26,-9.31a81.89,81.89 0 0 1 0.26,-9.32a84.77,84.77 0 0 1 0.26,9.32a84.65,84.65 0 0 1 -0.26,9.31z"/>
   <path id="svg_8" fill="#f5f5f5" d="m426.05,371.77a86,86 0 0 1 -9.63,0.27a85.83,85.83 0 0 1 -9.63,-0.27a90.5,90.5 0 0 1 9.63,-0.26a90.66,90.66 0 0 1 9.63,0.26z"/>
   <path id="svg_9" fill="#f5f5f5" d="m359.91,61.45a81.89,81.89 0 0 1 -0.26,-9.32a81.78,81.78 0 0 1 0.26,-9.31a84.65,84.65 0 0 1 0.26,9.31a84.77,84.77 0 0 1 -0.26,9.32z"/>
   <path id="svg_10" fill="#f5f5f5" d="m369.54,52.13a87.43,87.43 0 0 1 -9.63,0.26a87.43,87.43 0 0 1 -9.63,-0.26a90.5,90.5 0 0 1 9.63,-0.26a90.5,90.5 0 0 1 9.63,0.26z"/>
   <circle id="svg_11" fill="#f5f5f5" r="5.69" cy="197.85" cx="55.65"/>
   <path id="svg_12" fill="#f5f5f5" d="m282.76,440.24a5.7,5.7 0 1 1 -5.7,-5.69a5.69,5.69 0 0 1 5.7,5.69z"/>
   <path id="svg_13" fill="#f5f5f5" d="m335.72,332.68a5.69,5.69 0 1 1 -5.72,-5.68a5.69,5.69 0 0 1 5.72,5.68z"/>
   <path id="svg_14" fill="#f5f5f5" d="m166.61,49.26a5.69,5.69 0 1 1 -5.69,-5.69a5.69,5.69 0 0 1 5.69,5.69z"/>
   <circle id="svg_15" fill="#f5f5f5" r="2.85" cy="385.97" cx="190.73"/>
   <path id="svg_16" fill="#f5f5f5" d="m124.91,371.77a2.85,2.85 0 1 1 -2.85,-2.84a2.84,2.84 0 0 1 2.85,2.84z"/>
   <path id="svg_17" fill="#f5f5f5" d="m195.07,55a2.85,2.85 0 1 1 -2.85,-2.85a2.86,2.86 0 0 1 2.85,2.85z"/>
   <path id="svg_18" fill="#f5f5f5" d="m320.43,208.94a2.85,2.85 0 1 1 -2.85,-2.85a2.85,2.85 0 0 1 2.85,2.85z"/>
   <path id="svg_19" fill="#f5f5f5" d="m47.13,46.5s-6.34,3.27 2.54,16.55s14.7,19.68 14.7,19.68s1.67,3.13 -1,4s-8.89,0.59 -9.72,4.11s2.07,6.66 7.58,9s17.33,7.66 18.41,8.16s2.21,1.89 0.46,2.76s-15.25,3.91 -13.42,10.24s18.21,10.18 20,10.64s2.28,1.13 2.25,2.08s-4.67,1.55 -8.47,2.57s-8,2.88 -6.68,6.44s11.57,10.16 34.42,9.7l10.57,-0.9l4.68,-9.58c8.77,-21.1 6.35,-33 3.53,-35.59s-6.09,0.7 -8.43,3.87s-4.59,7.27 -5.49,7s-1.34,-1 -1.11,-2.86s2.61,-18.48 -2.61,-22.49s-13,7.45 -14.43,8.77s-2.33,-0.29 -2.4,-1.45s-0.83,-14.28 -0.95,-20.2s-1.85,-9.83 -5.56,-10.36s-5.62,5.36 -7.38,7.55s-4.07,-0.48 -4.07,-0.48s-3.84,-7.76 -13,-20.87s-14.55,-8.26 -14.55,-8.26"/>
   <path id="svg_20" fill="#f5f5f5" d="m119.6,153.93c-6.66,-9.65 -18.2,-27 -28.2,-41.87s-19,-28.28 -25.65,-38l-7.84,-11.44c-0.92,-1.34 -1.63,-2.39 -2.13,-3.11c-0.23,-0.36 -0.42,-0.63 -0.55,-0.82s-0.17,-0.29 -0.17,-0.29l0.2,0.27l0.58,0.8l2.16,3.08c1.89,2.68 4.59,6.58 7.92,11.41c6.68,9.65 15.77,23.04 25.76,37.92s21.51,32.23 28.12,41.92"/>
   <path id="svg_21" fill="#f5f5f5" d="m62.26,91.5a3.41,3.41 0 0 1 0.76,0.12c0.48,0.09 1.18,0.25 2,0.46c1.71,0.4 4.07,1 6.65,1.76l6.62,1.91l2,0.57a2.61,2.61 0 0 1 0.73,0.24a3.57,3.57 0 0 1 -0.76,-0.12c-0.48,-0.09 -1.18,-0.25 -2,-0.46c-1.71,-0.43 -4.06,-1.08 -6.65,-1.82l-6.61,-1.86l-2,-0.56a3.64,3.64 0 0 1 -0.74,-0.24z"/>
   <path id="svg_22" fill="#f5f5f5" d="m81.7,95.8c-0.08,0 1,-4.93 2.4,-11s2.64,-10.92 2.72,-10.9s-1,4.94 -2.4,11s-2.63,10.92 -2.72,10.9z"/>
   <path id="svg_23" fill="#f5f5f5" d="m96,119.3a3,3 0 0 1 0.35,-0.7l1,-1.86c0.88,-1.57 2.09,-3.74 3.34,-6.18s2.3,-4.69 3,-6.32l0.89,-1.94a3.53,3.53 0 0 1 0.36,-0.69a3.22,3.22 0 0 1 -0.24,0.74c-0.18,0.48 -0.45,1.15 -0.8,2c-0.69,1.66 -1.72,3.93 -3,6.38s-2.49,4.61 -3.42,6.15c-0.47,0.77 -0.86,1.38 -1.14,1.8a4,4 0 0 1 -0.34,0.62z"/>
   <path id="svg_24" fill="#f5f5f5" d="m77.58,119.28a2.85,2.85 0 0 1 0.72,-0.07l2,-0.08c1.67,0 4,-0.09 6.5,-0.12s4.83,0 6.49,0l2,0a3.13,3.13 0 0 1 0.72,0a3,3 0 0 1 -0.72,0.07l-2,0.08c-1.67,0.05 -4,0.1 -6.5,0.13s-4.83,0 -6.49,0l-2,0a3.42,3.42 0 0 1 -0.72,-0.01z"/>
   <path id="svg_25" fill="#f5f5f5" d="m87.58,141.63a5,5 0 0 1 0.92,-0.08l2.52,-0.11c2.13,-0.08 5.07,-0.16 8.32,-0.23s6.19,-0.11 8.32,-0.13l2.53,0a6.12,6.12 0 0 1 0.92,0a3.65,3.65 0 0 1 -0.92,0.09l-2.52,0.1c-2.13,0.08 -5.07,0.16 -8.32,0.23s-6.19,0.12 -8.33,0.13l-2.52,0a5.2,5.2 0 0 1 -0.92,0z"/>
   <path id="svg_26" fill="#f5f5f5" d="m110.55,141a5.74,5.74 0 0 1 0.42,-0.9l1.24,-2.4c1.05,-2 2.48,-4.83 4,-8s2.78,-6 3.69,-8.1l1.09,-2.48a6.17,6.17 0 0 1 0.43,-0.89a5.83,5.83 0 0 1 -0.31,0.94c-0.23,0.6 -0.56,1.46 -1,2.52c-0.86,2.11 -2.11,5 -3.62,8.16s-3,5.94 -4.06,7.94c-0.56,1 -1,1.8 -1.34,2.35a5.63,5.63 0 0 1 -0.54,0.86z"/>
   <path id="svg_27" fill="#f5f5f5" d="m390.5,237c-11.27,-9.83 -12.34,-25.93 -10.32,-40.09c0.33,-2.37 0.34,-4.9 1.7,-6.86s4.14,-3.1 6.15,-1.87c1.67,1 2.22,3.15 3,5a14,14 0 0 0 5,5.91c1.43,0.95 3.25,1.63 4.83,1c2.17,-0.9 2.71,-3.7 2.95,-6.07q0.68,-6.6 1.34,-13.2a22,22 0 0 1 1.47,-6.93a7.35,7.35 0 0 1 5.13,-4.45c2.31,-0.39 4.95,1.21 5.17,3.57a20.83,20.83 0 0 1 -0.25,2.94a2.49,2.49 0 0 0 1.2,2.49a2.85,2.85 0 0 0 2.71,-0.8a31.48,31.48 0 0 0 6.55,-7.9a43.74,43.74 0 0 1 6.2,-8.2c2.49,-2.36 5.77,-4.09 9.17,-3.92s6.77,2.65 7.27,6s-1.81,6.59 -4.21,9.05a52.84,52.84 0 0 1 -12.09,9.27a4.42,4.42 0 0 0 -2.05,1.78c-0.68,1.52 0.64,3.24 2.14,3.92c1.69,0.78 3.62,0.8 5.44,1.22s3.72,1.44 4.23,3.25c0.71,2.52 -1.58,4.83 -3.75,6.27a45.27,45.27 0 0 1 -14.18,6.27a15.33,15.33 0 0 0 -5.22,1.88c-1.53,1.06 -2.61,3.09 -1.94,4.85s2.78,2.52 4.64,2.38a33.47,33.47 0 0 0 5.39,-1.42c3.37,-0.88 7.53,-0.2 9.31,2.82a7.53,7.53 0 0 1 0.08,6.69a17.37,17.37 0 0 1 -4.2,5.45a45.76,45.76 0 0 1 -20.84,11.52c-7.8,1.8 -14.85,1.75 -22,-1.79"/>
   <path id="svg_28" fill="#f5f5f5" d="m395.13,228.47a211.38,211.38 0 0 1 10.87,-21.86l3.14,-5.58c1,-1.83 2.06,-3.64 3.17,-5.36a107.59,107.59 0 0 1 7,-9.48c2.36,-2.9 4.7,-5.58 6.91,-8.06s4.33,-4.75 6.34,-6.74a85.09,85.09 0 0 1 10.17,-8.68c1.28,-0.92 2.3,-1.61 3,-2.06l0.79,-0.52l0.28,-0.16a1.31,1.31 0 0 1 -0.25,0.2l-0.77,0.55c-0.68,0.48 -1.68,1.19 -2.94,2.13a90.07,90.07 0 0 0 -10.06,8.76c-2,2 -4.08,4.28 -6.28,6.76s-4.53,5.17 -6.87,8.08a106.42,106.42 0 0 0 -6.91,9.46c-1.1,1.7 -2.12,3.5 -3.15,5.34l-3.14,5.58a219.26,219.26 0 0 0 -10.85,21.8"/>
   <path id="svg_29" fill="#f5f5f5" d="m412.41,195.67a4.92,4.92 0 0 1 -0.12,-1c-0.06,-0.67 -0.1,-1.63 -0.14,-2.83c-0.08,-2.38 -0.08,-5.68 -0.07,-9.31s0,-6.93 -0.14,-9.31c-0.06,-1.19 -0.11,-2.15 -0.16,-2.81a4.85,4.85 0 0 1 0,-1a4.5,4.5 0 0 1 0.19,1c0.1,0.66 0.2,1.62 0.29,2.81c0.2,2.38 0.3,5.68 0.28,9.33s0,6.83 -0.06,9.31l0,2.82a5.34,5.34 0 0 1 -0.07,0.99z"/>
   <path id="svg_30" fill="#f5f5f5" d="m443.35,193.27a6.79,6.79 0 0 1 -1.22,0c-0.79,0 -1.93,0 -3.33,0c-2.81,0 -6.69,0.14 -11,0.48s-8.14,0.82 -10.92,1.25c-1.39,0.2 -2.51,0.4 -3.29,0.53a6.63,6.63 0 0 1 -1.21,0.16a5.86,5.86 0 0 1 1.18,-0.33c0.77,-0.18 1.89,-0.43 3.28,-0.67c2.77,-0.51 6.64,-1 10.93,-1.38a107.27,107.27 0 0 1 11,-0.35c1.41,0 2.55,0.1 3.34,0.17a6,6 0 0 1 1.24,0.14z"/>
   <path id="svg_31" fill="#f5f5f5" d="m395.56,228a1.79,1.79 0 0 1 -0.17,-0.39c-0.1,-0.31 -0.24,-0.69 -0.4,-1.15c-0.34,-1 -0.8,-2.47 -1.34,-4.29c-1.09,-3.63 -2.44,-8.69 -3.85,-14.3s-2.71,-10.69 -3.72,-14.34c-0.49,-1.77 -0.9,-3.23 -1.21,-4.32c-0.13,-0.47 -0.23,-0.86 -0.32,-1.18a2,2 0 0 1 -0.09,-0.42a1.34,1.34 0 0 1 0.17,0.4l0.4,1.15c0.35,1 0.81,2.47 1.35,4.28c1.09,3.64 2.43,8.7 3.84,14.31s2.71,10.68 3.72,14.34c0.5,1.77 0.91,3.23 1.21,4.32l0.33,1.17a1.23,1.23 0 0 1 0.08,0.42z"/>
   <path id="svg_32" fill="#f5f5f5" d="m437.27,219.31a2.52,2.52 0 0 1 -0.42,0.12l-1.21,0.26l-4.47,0.94c-3.77,0.79 -9,1.94 -14.71,3.21s-10.95,2.39 -14.74,3.1c-1.9,0.35 -3.43,0.63 -4.5,0.79l-1.23,0.19a1.17,1.17 0 0 1 -0.43,0l0.42,-0.12l1.21,-0.26l4.47,-0.94c3.77,-0.79 9,-1.94 14.71,-3.22s10.95,-2.38 14.74,-3.09c1.9,-0.36 3.43,-0.63 4.5,-0.79l1.23,-0.19a1.17,1.17 0 0 1 0.43,0z"/>
   <path id="svg_33" fill="#f5f5f5" d="m303.63,68c1.81,-10.42 6.78,-25.65 12.73,-34.39s15.12,-15.61 25.64,-17.11s22,3.5 26.7,12.93c2.53,5.07 3,10.91 4.84,16.26s5.88,10.72 11.53,11.15c5,0.39 9.83,-3.22 14.75,-2.26c6.42,1.25 8.89,9.15 8.93,15.68s-0.9,13.79 3.12,18.94c3.28,4.22 8.91,5.67 13.44,8.5c9.81,6.12 14,18.75 13,30.27s-6.3,22.18 -11.93,32.27a252.86,252.86 0 0 0 -19,-47.88c-4.55,-8.72 -12.86,-16.13 -20.21,-22.66c-11.29,-10 -36.06,-14.81 -51.05,-16.65s-17.63,-2.24 -32.46,-5"/>
  </g>
  <g id="freepik--back-screens--inject-6">
   <path id="svg_34" fill="#0466C8" d="m203.71,80.3c-37.07,2.69 -77.55,7.6 -107.23,19l9.38,63.43s57.52,-20.59 104.33,-19.16l-6.48,-63.27z"/>
   <g id="svg_35" opacity="0.8">
    <path id="svg_36" fill="#fff" d="m203.71,80.3c-37.07,2.69 -77.55,7.6 -107.23,19l9.38,63.43s57.52,-20.59 104.33,-19.16l-6.48,-63.27z"/>
   </g>
   <path id="svg_37" fill="#0466C8" d="m201,135.2l-0.36,0.06l-1.05,0.15l-4,0.5c-1.76,0.21 -3.91,0.47 -6.4,0.83s-5.33,0.72 -8.45,1.24c-12.51,1.93 -29.73,5.12 -48.43,10c-6.5,1.68 -12.77,3.41 -18.5,5.21l-0.29,0.08l0,-0.29c-2,-14.54 -3.94,-27.08 -5.43,-36c-0.76,-4.42 -1.37,-8 -1.79,-10.41c-0.21,-1.19 -0.37,-2.12 -0.49,-2.78c0,-0.3 -0.08,-0.54 -0.11,-0.72a0.8,0.8 0 0 1 0,-0.25a1,1 0 0 1 0.07,0.24c0,0.18 0.09,0.42 0.16,0.71c0.13,0.66 0.32,1.58 0.57,2.77c0.48,2.41 1.15,5.94 1.93,10.38c1.58,8.88 3.58,21.42 5.62,36l-0.33,-0.2c5.75,-1.82 12,-3.56 18.53,-5.24a472.25,472.25 0 0 1 48.5,-9.82c3.13,-0.49 6,-0.82 8.47,-1.15s4.65,-0.57 6.41,-0.75l4.06,-0.41l1.06,-0.09a1.39,1.39 0 0 1 0.25,-0.06z"/>
   <path id="svg_38" fill="#0466C8" d="m202.3,119.78s-0.14,-0.44 -0.43,-1.27a13.31,13.31 0 0 0 -1.91,-3.27a16.61,16.61 0 0 0 -4.5,-3.95c-0.48,-0.32 -1.05,-0.56 -1.6,-0.85a14.32,14.32 0 0 0 -1.81,-0.65a9.9,9.9 0 0 0 -4.13,-0.4a8.6,8.6 0 0 0 -4.2,1.65a14.23,14.23 0 0 0 -3.36,3.65c-2,2.89 -3.21,6.41 -4.71,10.06a12.49,12.49 0 0 1 -3.49,5a6.55,6.55 0 0 1 -2.89,1.39a5.87,5.87 0 0 1 -3.26,-0.38c-4.22,-1.67 -6.1,-6.54 -10.37,-8a8.37,8.37 0 0 0 -6.33,0.52a8.1,8.1 0 0 0 -2.51,1.94a13,13 0 0 0 -1.67,2.68c-0.95,1.88 -1.67,4 -3.28,5.45a4.88,4.88 0 0 1 -2.88,1.29a5.75,5.75 0 0 1 -3,-0.64a10.87,10.87 0 0 1 -4.14,-4.07a36,36 0 0 1 -2.19,-5a23.53,23.53 0 0 0 -2.17,-4.51a9,9 0 0 0 -3.31,-3.08a8.6,8.6 0 0 0 -7.6,-0.22a12.85,12.85 0 0 0 -4.83,3.48a9.37,9.37 0 0 0 -1.81,3.31c-0.26,0.83 -0.29,1.3 -0.33,1.29a5.66,5.66 0 0 1 0.23,-1.32a9,9 0 0 1 1.75,-3.41a13,13 0 0 1 4.87,-3.62a8.88,8.88 0 0 1 7.89,0.17a9.34,9.34 0 0 1 3.48,3.18a23.72,23.72 0 0 1 2.23,4.58a36.14,36.14 0 0 0 2.19,4.91a10.33,10.33 0 0 0 4,3.88a5.27,5.27 0 0 0 2.75,0.59a4.45,4.45 0 0 0 2.59,-1.18c1.48,-1.35 2.2,-3.39 3.15,-5.3a13.45,13.45 0 0 1 1.74,-2.8a8.58,8.58 0 0 1 2.67,-2.06a8.87,8.87 0 0 1 6.73,-0.55c2.27,0.75 3.9,2.5 5.41,4.08a15.13,15.13 0 0 0 5,4a5.37,5.37 0 0 0 3,0.35a6.14,6.14 0 0 0 2.67,-1.28a12.18,12.18 0 0 0 3.36,-4.8c1.49,-3.61 2.8,-7.18 4.8,-10.11a14.17,14.17 0 0 1 3.48,-3.74a9.08,9.08 0 0 1 4.39,-1.69a10.3,10.3 0 0 1 4.26,0.45a14.44,14.44 0 0 1 1.85,0.69a17.24,17.24 0 0 1 6.13,5a12.83,12.83 0 0 1 1.85,3.37a9.29,9.29 0 0 1 0.26,1a2.12,2.12 0 0 1 -0.02,0.19z"/>
   <path id="svg_39" fill="#0466C8" d="m104.05,111.45c0,0.14 -0.46,0.35 -1.08,0.47s-1.15,0.1 -1.17,0s0.45,-0.35 1.07,-0.47s1.13,-0.14 1.18,0z"/>
   <path id="svg_40" fill="#0466C8" d="m105.69,123c0.06,0.14 -0.3,0.43 -0.81,0.67s-1,0.32 -1,0.19s0.31,-0.42 0.82,-0.66s0.93,-0.3 0.99,-0.2z"/>
   <path id="svg_41" fill="#0466C8" d="m107.74,135.69c0,0.14 -0.33,0.39 -0.84,0.57s-1,0.21 -1,0.08s0.33,-0.39 0.84,-0.57s0.95,-0.21 1,-0.08z"/>
   <path id="svg_42" fill="#0466C8" d="m110.2,148.13c0,0.14 -0.39,0.4 -1,0.57s-1.06,0.22 -1.1,0.08s0.38,-0.39 0.94,-0.57s1.11,-0.21 1.16,-0.08z"/>
   <path id="svg_43" fill="#0466C8" d="m180.11,88.36a5.19,5.19 0 0 1 1.21,-0.28c0.8,-0.13 2,-0.31 3.45,-0.52c3,-0.42 7.21,-1 12.26,-1.59l0.24,0l0,0.24c0.39,4.26 0.85,9.16 1.33,14.36l0,0.22l0,0.25l-0.25,0l-16.57,2l-0.23,0l0,-0.22c-0.46,-4.35 -0.85,-8 -1.13,-10.59c-0.12,-1.22 -0.21,-2.19 -0.29,-2.93a8.4,8.4 0 0 1 -0.06,-1a9,9 0 0 1 0.18,1.06c0.11,0.74 0.24,1.73 0.41,3c0.33,2.58 0.78,6.16 1.33,10.46l-0.25,-0.2l16.57,-2.11l-0.23,0.28l0,-0.21c-0.46,-5.2 -0.89,-10.11 -1.27,-14.37l0.26,0.21l-16.96,1.94z"/>
   <path id="svg_44" fill="#0466C8" d="m195.51,90.88c0,0.16 -2.85,0.15 -6.33,0.53s-6.27,1 -6.31,0.81a30.76,30.76 0 0 1 12.64,-1.34z"/>
   <path id="svg_45" fill="#0466C8" d="m195.69,94.6c0,0.15 -2.66,0.25 -5.91,0.57s-5.89,0.72 -5.92,0.57a23.18,23.18 0 0 1 5.87,-1.09a22.82,22.82 0 0 1 5.96,-0.05z"/>
   <path id="svg_46" fill="#0466C8" d="m191.72,97.84a10.94,10.94 0 0 1 -3.38,0.69a11.67,11.67 0 0 1 -3.43,0.18a11.28,11.28 0 0 1 3.37,-0.69a11.74,11.74 0 0 1 3.44,-0.18z"/>
   <path id="svg_47" fill="#0466C8" d="m384.43,99c-36.3,-11.06 -66.93,-20.51 -108,-20.25l-6.28,64.63c42.71,3.78 57,6.58 96.42,20.85l17.86,-65.23z"/>
   <g id="svg_48" opacity="0.8">
    <path id="svg_49" fill="#fff" d="m384.43,99c-36.3,-11.06 -66.93,-20.51 -108,-20.25l-6.28,64.63c42.71,3.78 57,6.58 96.42,20.85l17.86,-65.23z"/>
   </g>
   <path id="svg_50" fill="#0466C8" d="m302.25,110.07l1.6,-13.71a16.05,16.05 0 0 0 -11.19,3.1a16.82,16.82 0 0 0 -6.88,13.54a19.67,19.67 0 0 0 0.05,2a0.07,0.07 0 0 0 0,0l0,0l16,-1.8l0.42,-3.13z"/>
   <path id="svg_51" fill="#0466C8" d="m318.8,107.83a15.51,15.51 0 0 0 -11.41,-10.83l-0.48,-0.1l-0.31,-0.07l-0.94,-0.14l-0.08,0l-1.58,13.65l-0.38,3.22l15.12,5.52l0,0a17.32,17.32 0 0 0 0.78,-3.51a18.87,18.87 0 0 0 -0.72,-7.74z"/>
   <g id="svg_52" opacity="0.3">
    <path id="svg_53" d="m318.8,107.83a15.51,15.51 0 0 0 -11.41,-10.83l-0.48,-0.1l-0.31,-0.07l-0.94,-0.14l-0.08,0l-1.58,13.65l-0.38,3.22l15.12,5.52l0,0a17.32,17.32 0 0 0 0.78,-3.51a18.87,18.87 0 0 0 -0.72,-7.74z"/>
   </g>
   <path id="svg_54" fill="#0466C8" d="m302.48,115.1l-16,1.8c0.67,7.76 6.33,14.19 13.93,15.13s14.73,-4 17.23,-11.4l-15.12,-5.52"/>
   <path id="svg_55" fill="#0466C8" d="m370.4,111.28a8.62,8.62 0 0 1 -1.41,-0.57c-0.89,-0.41 -2.19,-1 -3.81,-1.65a116.38,116.38 0 0 0 -12.88,-4.52a117.56,117.56 0 0 0 -13.34,-3c-1.72,-0.28 -3.13,-0.48 -4.1,-0.61a7.76,7.76 0 0 1 -1.5,-0.26a9.78,9.78 0 0 1 1.53,0.06c1,0.07 2.39,0.22 4.13,0.45a96.28,96.28 0 0 1 26.31,7.5c1.6,0.72 2.88,1.34 3.75,1.8a9,9 0 0 1 1.32,0.8z"/>
   <path id="svg_56" fill="#0466C8" d="m369.3,118a9.49,9.49 0 0 1 -1.41,-0.58c-0.89,-0.4 -2.19,-1 -3.81,-1.64a113.36,113.36 0 0 0 -26.22,-7.48c-1.72,-0.28 -3.13,-0.48 -4.1,-0.61a10.4,10.4 0 0 1 -1.5,-0.26a7.39,7.39 0 0 1 1.53,0.06c1,0.06 2.39,0.21 4.13,0.44a96.62,96.62 0 0 1 13.42,2.82a98.25,98.25 0 0 1 12.89,4.69c1.6,0.72 2.88,1.34 3.75,1.8a7.43,7.43 0 0 1 1.32,0.76z"/>
   <path id="svg_57" fill="#0466C8" d="m368.2,124.77a8.62,8.62 0 0 1 -1.41,-0.57c-0.89,-0.4 -2.19,-1 -3.81,-1.65a118.49,118.49 0 0 0 -12.88,-4.55a119.79,119.79 0 0 0 -13.34,-3c-1.72,-0.27 -3.12,-0.48 -4.1,-0.61a7.76,7.76 0 0 1 -1.5,-0.26a9.78,9.78 0 0 1 1.53,0.06c1,0.07 2.39,0.22 4.13,0.45a96.62,96.62 0 0 1 13.42,2.82a95.42,95.42 0 0 1 12.89,4.69c1.6,0.72 2.88,1.34 3.75,1.8a7.91,7.91 0 0 1 1.32,0.82z"/>
   <path id="svg_58" fill="#0466C8" d="m366,131.52a9.82,9.82 0 0 1 -1.37,-0.57c-0.86,-0.41 -2.12,-1 -3.68,-1.64a107.88,107.88 0 0 0 -25.44,-7.49c-1.68,-0.28 -3,-0.48 -4,-0.61a7.46,7.46 0 0 1 -1.46,-0.26a8,8 0 0 1 1.49,0.06c0.95,0.06 2.32,0.21 4,0.45a91.3,91.3 0 0 1 13.05,2.82a93.27,93.27 0 0 1 12.51,4.72c1.55,0.72 2.79,1.34 3.62,1.8a7.8,7.8 0 0 1 1.28,0.72z"/>
   <path id="svg_59" fill="#0466C8" d="m361.22,136.9a7.64,7.64 0 0 1 -1.23,-0.49l-3.31,-1.47a80.57,80.57 0 0 0 -22.82,-6.51l-3.59,-0.5a8.08,8.08 0 0 1 -1.31,-0.23a5.66,5.66 0 0 1 1.33,0c0.86,0 2.09,0.16 3.61,0.33a69.5,69.5 0 0 1 22.93,6.54c1.39,0.66 2.49,1.22 3.25,1.63a6.3,6.3 0 0 1 1.14,0.7z"/>
   <path id="svg_60" fill="#0466C8" d="m345.09,137.66a17,17 0 0 1 -2.58,-0.53c-1.58,-0.37 -3.77,-0.85 -6.21,-1.26s-4.67,-0.73 -6.28,-1a15.43,15.43 0 0 1 -2.6,-0.45a12.19,12.19 0 0 1 2.64,0.08c1.63,0.14 3.87,0.38 6.33,0.81a56.45,56.45 0 0 1 6.21,1.42a11.6,11.6 0 0 1 2.49,0.93z"/>
   <path id="svg_61" fill="#0466C8" d="m282.68,86.37l0.84,-0.05l2.5,-0.08c2.2,0 5.4,0 9.48,0.21a151.6,151.6 0 0 1 33.3,6l0.18,0.06l0,0.19c-2.5,14.33 -5.48,31.36 -8.66,49.58c-0.13,0.74 -0.26,1.48 -0.39,2.2l0,0.28l-0.28,-0.07a216.25,216.25 0 0 0 -22.23,-4.59c-7.17,-1.1 -14,-1.88 -20.38,-2.28l-0.25,0l0,-0.24c1.75,-15.29 3.22,-28.09 4.25,-37.1c0.52,-4.46 0.94,-8 1.22,-10.4c0.14,-1.18 0.26,-2.09 0.33,-2.73c0,-0.29 0.07,-0.52 0.09,-0.7s0,-0.23 0,-0.22a1.18,1.18 0 0 1 0,0.25c0,0.18 0,0.42 -0.07,0.72c-0.06,0.65 -0.16,1.58 -0.28,2.78c-0.25,2.44 -0.63,6 -1.1,10.46c-1,9 -2.36,21.75 -4,37l-0.22,-0.25c6.39,0.38 13.25,1.15 20.43,2.24a217.17,217.17 0 0 1 22.29,4.58l-0.32,0.21c0.13,-0.72 0.26,-1.46 0.39,-2.2c3.21,-18.22 6.21,-35.24 8.73,-49.56l0.15,0.25a154.65,154.65 0 0 0 -33.18,-6.13c-4.06,-0.27 -7.28,-0.34 -9.44,-0.33l-3.36,0l-0.02,-0.08z"/>
  </g>
  <g id="freepik--Character--inject-6">
   <polyline id="svg_62" fill="#0466C8" points="243.04 218.44 278.44 226.28 283.85 218.44 282.98 208.35 277.6 203.43 259.06 203.43 241.74 219.03"/>
   <g id="svg_63" opacity="0.3">
    <polyline id="svg_64" points="243.04 218.44 278.44 226.28 283.85 218.44 282.98 208.35 277.6 203.43 259.06 203.43 241.74 219.03"/>
   </g>
   <path id="svg_65" fill="#ffbe9d" d="m297,145.54l44.69,-6l7,-2s16.11,-3.54 17.61,-4.08c1.74,-0.62 2.46,0.07 2.64,0.72c0.29,1 -0.69,2.17 -2.17,2.75c-0.5,0.2 -8.67,3 -8.67,3a20,20 0 0 1 2.76,0.8c1.95,0.66 3.82,3.18 4.76,6.12s0.95,3.84 -0.18,4.26a1.57,1.57 0 0 1 -1.3,-0.18a3.1,3.1 0 0 1 -1.34,-1.68c-1.57,-4.69 -4.5,-5.06 -4.5,-5.06l-0.92,0.26s3,2.11 3,4.67a2.86,2.86 0 0 1 -0.24,1.09a3.87,3.87 0 0 1 -4.31,5.09c-0.64,-0.12 -1.34,-0.5 -1.43,-1.14a2,2 0 0 1 0.21,-1a4.64,4.64 0 0 0 0.16,-0.53l-2.68,0.37s-6.07,0.5 -8.68,1l-41.84,12.6a10.84,10.84 0 0 1 -13.57,-7.38l0,0a10.83,10.83 0 0 1 9,-13.68z"/>
   <path id="svg_66" fill="#ffbe9d" d="m342.74,140.66a2.25,2.25 0 0 0 1.93,1.78c0.92,0.19 1.88,0.07 2.81,0.19c2.78,0.38 4.95,2.91 7.74,3.15c0.39,0 0.89,0 1,-0.42s-0.19,-0.67 -0.46,-0.91l-7,-6.17"/>
   <path id="svg_67" fill="#eb996e" d="m348.79,138.28a4.81,4.81 0 0 1 0.82,0.59c0.5,0.41 1.23,1 2.11,1.76l3.09,2.65l0.88,0.77c0.27,0.27 0.73,0.5 0.81,1.14a0.79,0.79 0 0 1 -0.48,0.74a1.64,1.64 0 0 1 -0.75,0.12a5.59,5.59 0 0 1 -1.34,-0.27a35.69,35.69 0 0 1 -4.47,-2.26a6.84,6.84 0 0 0 -2,-0.66c-0.65,-0.1 -1.29,-0.08 -1.87,-0.12a3.29,3.29 0 0 1 -2.55,-1.1c-0.41,-0.57 -0.33,-1 -0.31,-1a2.91,2.91 0 0 0 0.47,0.84a3.13,3.13 0 0 0 2.4,0.86a18.71,18.71 0 0 1 1.92,0.06a7.39,7.39 0 0 1 2.14,0.65a40.47,40.47 0 0 0 4.42,2.21a5.89,5.89 0 0 0 1.21,0.24c0.39,0 0.72,-0.11 0.68,-0.31s-0.32,-0.52 -0.62,-0.78l-0.88,-0.78l-3,-2.74l-2,-1.88c-0.47,-0.44 -0.71,-0.7 -0.68,-0.73z"/>
   <path id="svg_68" fill="#eb996e" d="m357.35,144.39a3.77,3.77 0 0 1 1.76,0a2.91,2.91 0 0 1 1.53,1a7.37,7.37 0 0 1 1.1,2.09a12.26,12.26 0 0 0 1,2.22a3.9,3.9 0 0 0 1.46,1.41a1.5,1.5 0 0 0 1.37,0c0.29,-0.15 0.4,-0.3 0.39,-0.31s-0.16,0.08 -0.44,0.19a1.49,1.49 0 0 1 -1.21,-0.12a3.88,3.88 0 0 1 -1.3,-1.36a12.74,12.74 0 0 1 -1,-2.19a7.36,7.36 0 0 0 -1.18,-2.16a3.13,3.13 0 0 0 -1.71,-1.09a2.86,2.86 0 0 0 -1.37,0c-0.26,0.2 -0.41,0.3 -0.4,0.32z"/>
   <path id="svg_69" fill="#eb996e" d="m367.39,136.7a8.89,8.89 0 0 0 -1.63,0.55l-3.88,1.43l-3.88,1.37a8.34,8.34 0 0 0 -1.6,0.61a8,8 0 0 0 1.68,-0.38c1,-0.29 2.42,-0.73 3.94,-1.28s2.89,-1.09 3.86,-1.52a7.53,7.53 0 0 0 1.51,-0.78z"/>
   <path id="svg_70" fill="#eb996e" d="m356.17,146.88s0.12,0.16 0.35,0.41a1.59,1.59 0 0 1 0.51,1.23a0.85,0.85 0 0 1 -0.53,0.66a4.8,4.8 0 0 1 -1.08,0.3a1.91,1.91 0 0 0 -1.21,0.64a1.66,1.66 0 0 0 -0.2,1.47a1.86,1.86 0 0 0 1,1.08a2.25,2.25 0 0 0 1.34,0.2a7.61,7.61 0 0 0 2.07,-0.77a4.42,4.42 0 0 0 1.2,-0.89a1.14,1.14 0 0 0 0.28,-0.47s-0.13,0.15 -0.38,0.37a5,5 0 0 1 -1.21,0.77a7.88,7.88 0 0 1 -2,0.68a1.84,1.84 0 0 1 -2,-1.07a1.33,1.33 0 0 1 0.14,-1.17a1.61,1.61 0 0 1 1,-0.53a4.89,4.89 0 0 0 1.14,-0.36a1.13,1.13 0 0 0 0.64,-0.88a1.71,1.71 0 0 0 -0.65,-1.36c-0.23,-0.19 -0.4,-0.33 -0.41,-0.31z"/>
   <path id="svg_71" fill="#eb996e" d="m355.21,152.45s-0.19,0 -0.44,0.21a1.5,1.5 0 0 0 -0.5,1.24a2,2 0 0 0 1.19,1.59a3.25,3.25 0 0 0 2.42,0a3.92,3.92 0 0 0 1.93,-1.47a3.76,3.76 0 0 0 0.65,-1.86a3.43,3.43 0 0 0 -0.15,-1.32a1.08,1.08 0 0 0 -0.2,-0.44a6.94,6.94 0 0 1 0.11,1.73a3.7,3.7 0 0 1 -2.45,3a3,3 0 0 1 -2.18,0a1.75,1.75 0 0 1 -1.08,-1.32a1.42,1.42 0 0 1 0.35,-1.12c0.2,-0.15 0.37,-0.21 0.35,-0.24z"/>
   <path id="svg_72" fill="#eb996e" d="m347.78,148.78s0,-0.32 -0.29,-0.78a3.28,3.28 0 0 0 -1.63,-1.33l0,0.3a8,8 0 0 0 1,-0.56a7.39,7.39 0 0 0 2.8,-2.89a19,19 0 0 1 -3,2.6c-0.34,0.21 -0.67,0.4 -1,0.56l-0.34,0.18l0.36,0.12a3.42,3.42 0 0 1 1.57,1.14c0.37,0.39 0.48,0.67 0.53,0.66z"/>
   <path id="svg_73" fill="#eb996e" d="m361.69,144c-0.06,-0.06 -0.53,0.46 -0.59,1.29s0.34,1.4 0.42,1.35s-0.13,-0.61 -0.07,-1.33s0.33,-1.25 0.24,-1.31z"/>
   <path id="svg_74" fill="#ffbe9d" d="m153.18,159.55s-6.52,-10.57 -7.68,-11.47s-11.49,-4.68 -12.37,-4.4s-13.4,2.41 -12,3.9s10.17,-0.13 10.17,-0.13l1.18,0.59s-7.55,1.2 -9.14,2.12s-1,2.63 0.43,2.49s7.93,-1.41 8.32,-1.14s-7.13,1.77 -7.94,2.24c-1.09,0.65 -1.2,2.58 0.18,2.49c0.81,-0.06 7.9,-1.89 7.9,-1.89a61.14,61.14 0 0 0 -6.14,2.66c-0.85,0.81 -0.18,2 1,1.76c0.84,-0.18 4.81,-2.08 5.93,-2.32c0,0 1,0.28 2,2.4c0.44,1 2.46,7.15 6.15,7.07c3.27,-0.07 6.48,2.62 6.48,2.62l5.53,-8.99z"/>
   <path id="svg_75" fill="#eb996e" d="m121.19,147.61a5.72,5.72 0 0 0 2.28,0.63a13,13 0 0 0 2.58,0.11c1,-0.11 2,-0.25 3.1,-0.41l2.34,-0.34l-0.14,0a32.68,32.68 0 0 0 5.4,1.69a34.37,34.37 0 0 0 -5.21,-2.22l-0.06,0l-0.08,0l-2.32,0.31l-3.07,0.45a16.2,16.2 0 0 1 -2.5,0c-1.42,-0.1 -2.3,-0.31 -2.32,-0.22z"/>
   <path id="svg_76" fill="#ffbe9d" d="m148.29,158.3a2.51,2.51 0 0 1 -2.91,0c-0.89,-0.54 -1.58,-1.36 -2.43,-2c-2.54,-1.8 -6.21,-1.37 -8.67,-3.29c-0.34,-0.26 -0.68,-0.7 -0.49,-1.09s0.66,-0.4 1.07,-0.39l10.31,0.24"/>
   <path id="svg_77" fill="#eb996e" d="m145.17,151.81a4.71,4.71 0 0 0 -1.11,-0.14c-0.72,0 -1.76,-0.11 -3,-0.16l-4.51,-0.18l-1.31,0a2,2 0 0 0 -1.51,0.32a0.88,0.88 0 0 0 -0.17,1a1.76,1.76 0 0 0 0.52,0.67a6.87,6.87 0 0 0 1.29,0.79a39.72,39.72 0 0 0 5.35,1.53a7.87,7.87 0 0 1 2.11,1c0.6,0.41 1.1,0.91 1.61,1.32a3.65,3.65 0 0 0 2.9,1c0.77,-0.14 1,-0.56 1,-0.56a3.22,3.22 0 0 1 -1,0.34a3.58,3.58 0 0 1 -2.6,-1.12c-0.47,-0.41 -1,-0.93 -1.6,-1.4a8,8 0 0 0 -2.23,-1.08a45.34,45.34 0 0 1 -5.25,-1.54a6.6,6.6 0 0 1 -1.18,-0.71c-0.33,-0.27 -0.49,-0.64 -0.31,-0.78s0.65,-0.17 1.09,-0.16l1.3,0l4.52,0c1.28,0 2.32,0 3,0a4.21,4.21 0 0 0 1.09,-0.14z"/>
   <path id="svg_78" fill="#0466C8" d="m204,393.78l-2.37,26.22l-7.87,20.21a2.7,2.7 0 0 0 1.71,3.55l0,0a2.7,2.7 0 0 0 2.44,-0.42c4.43,-3.37 20.66,-15.87 20.73,-17.8c0.08,-2.23 4.36,-27.54 4.36,-27.54l-19,-4.22z"/>
   <g id="svg_79" opacity="0.6">
    <path id="svg_80" fill="#fff" d="m195.47,443.77l23.37,-20l-0.12,1.11a4.1,4.1 0 0 1 -1.26,2.51c-1.88,1.76 -7.19,6.52 -19.47,16a2.69,2.69 0 0 1 -2.52,0.41l0,-0.03z"/>
   </g>
   <g id="svg_81" opacity="0.6">
    <path id="svg_82" fill="#fff" d="m214.43,414.73a1.64,1.64 0 0 0 -0.68,2.07a1.56,1.56 0 0 0 2,0.69a1.72,1.72 0 0 0 0.72,-2.19a1.63,1.63 0 0 0 -2.21,-0.49"/>
   </g>
   <path id="svg_83" fill="#263238" d="m202.76,433c-0.16,0.06 -0.59,-1.38 -2.07,-2.3a8.29,8.29 0 0 0 -2.94,-0.92c0,-0.06 0.34,-0.23 1,-0.25a4.2,4.2 0 0 1 2.3,0.69a4.1,4.1 0 0 1 1.57,1.8c0.21,0.6 0.2,0.98 0.14,0.98z"/>
   <path id="svg_84" fill="#263238" d="m200.49,436.31c-0.13,0.1 -0.88,-0.85 -2.19,-1.39a22.67,22.67 0 0 0 -2.51,-0.62a3,3 0 0 1 2.74,0.09c1.47,0.61 2.11,1.87 1.96,1.92z"/>
   <path id="svg_85" fill="#263238" d="m206.74,428.92a26.83,26.83 0 0 0 -3.24,-2.37c-1.94,-1.05 -3.79,-1.17 -3.77,-1.35a6,6 0 0 1 4.05,0.84a6,6 0 0 1 2.96,2.88z"/>
   <path id="svg_86" fill="#263238" d="m208.13,421c-0.09,0.15 -1.46,-0.62 -3.34,-0.9s-3.41,0 -3.45,-0.17a6.72,6.72 0 0 1 6.79,1.07z"/>
   <path id="svg_87" fill="#263238" d="m209,413.33a13,13 0 0 0 -3.45,-1a13.45,13.45 0 0 0 -3.57,0.47c0,-0.06 0.28,-0.35 0.93,-0.63a5.68,5.68 0 0 1 2.68,-0.42a5.94,5.94 0 0 1 2.59,0.83c0.62,0.35 0.89,0.69 0.82,0.75z"/>
   <path id="svg_88" fill="#263238" d="m205.79,410.84a2.2,2.2 0 0 1 0.08,-1a7,7 0 0 1 1.08,-2.5a3.14,3.14 0 0 1 1.47,-1.31a1.1,1.1 0 0 1 1.19,0.38a1.76,1.76 0 0 1 0.28,1.23a3.82,3.82 0 0 1 -3.72,3.13a4.43,4.43 0 0 1 -4.06,-2.79a1.56,1.56 0 0 1 0.07,-1.28a1.07,1.07 0 0 1 1.17,-0.43a3.67,3.67 0 0 1 1.62,1.09a7.61,7.61 0 0 1 1.56,2.24a2.47,2.47 0 0 1 0.3,0.95a12.4,12.4 0 0 0 -2.14,-2.9a3.47,3.47 0 0 0 -1.44,-0.91a0.57,0.57 0 0 0 -0.64,0.23a1.06,1.06 0 0 0 0,0.84a3.93,3.93 0 0 0 3.54,2.38a3.31,3.31 0 0 0 3.2,-2.61a1.27,1.27 0 0 0 -0.16,-0.86a0.58,0.58 0 0 0 -0.65,-0.22a2.72,2.72 0 0 0 -1.27,1.08a10.21,10.21 0 0 0 -1.48,3.26z"/>
   <path id="svg_89" fill="#263238" d="m228.14,409.17l19.63,-155.45l-6.28,-36.14l-37,2l-4.63,186.72a2.83,2.83 0 0 0 2.3,2.87l21.56,3.33a3.87,3.87 0 0 0 4.42,-3.33z"/>
   <path id="svg_90" fill="#263238" d="m247.2,258.93l35.71,35.34l-51.37,12.49l3.65,25.92l69.54,-9.46a21.92,21.92 0 0 0 14.8,-8.89l0,0a21.88,21.88 0 0 0 0.34,-25.12l-54.18,-79.52l-24.2,7.89l5.71,41.35z"/>
   <path id="svg_91" fill="#455a64" d="m245.23,249.94a20.17,20.17 0 0 1 1.24,4.44a19.48,19.48 0 0 1 0.73,4.55a21.07,21.07 0 0 1 -1.24,-4.44a20.83,20.83 0 0 1 -0.73,-4.55z"/>
   <path id="svg_92" fill="#455a64" d="m240,310l0.85,-0.28l2.5,-0.78l9.58,-2.91l34.86,-10.48l-0.09,0.33l-42.86,-45.65l0.45,-0.14c-0.85,7.17 -1.74,14.66 -2.64,22.3c-4.42,37 -8.58,70.52 -11.79,94.74c-1.6,12.11 -3,21.9 -4,28.66c-0.57,3.36 -1,6 -1.34,7.75c-0.18,0.87 -0.33,1.53 -0.43,2s-0.16,0.68 -0.16,0.68s0,-0.24 0.11,-0.69s0.22,-1.14 0.38,-2c0.36,-1.76 0.7,-4.39 1.24,-7.76c1,-6.77 2.32,-16.56 3.86,-28.68c3.13,-24.22 7.22,-57.73 11.64,-94.75c0.91,-7.64 1.8,-15.13 2.65,-22.3l0.06,-0.55l0.38,0.4l42.75,45.73l0.22,0.24l-0.31,0.09l-34.91,10.32l-9.62,2.81l-2.51,0.72c-0.54,0.2 -0.87,0.2 -0.87,0.2z"/>
   <path id="svg_93" fill="#455a64" d="m228.47,406.24c-0.14,0 3.94,-33 9.11,-73.69s9.48,-73.64 9.62,-73.62s-3.93,33 -9.1,73.69s-9.48,73.63 -9.63,73.62z"/>
   <path id="svg_94" fill="#455a64" d="m241.41,233.49a12,12 0 0 1 0.82,2.41c0.44,1.5 1,3.61 1.5,5.95s0.89,4.48 1.12,6a11.58,11.58 0 0 1 0.25,2.53a12.93,12.93 0 0 1 -0.61,-2.47c-0.37,-1.71 -0.8,-3.74 -1.27,-6s-1,-4.26 -1.34,-6a12,12 0 0 1 -0.47,-2.42z"/>
   <path id="svg_95" fill="#455a64" d="m243.7,230.44s0.5,-0.49 1.45,-0.16a1.69,1.69 0 0 1 1.08,1.28a1.85,1.85 0 0 1 -0.81,1.9a1.79,1.79 0 0 1 -2,-0.21a1.52,1.52 0 0 1 -0.46,-1.61a1.49,1.49 0 0 1 0.67,-0.89c0.23,-0.13 0.38,-0.13 0.39,-0.1a2,2 0 0 0 -0.7,1.07a1.15,1.15 0 0 0 0.41,1.16a1.36,1.36 0 0 0 1.48,0.13a1.42,1.42 0 0 0 0.6,-1.37a1.35,1.35 0 0 0 -0.76,-1a2.67,2.67 0 0 0 -1.35,-0.2z"/>
   <path id="svg_96" fill="#455a64" d="m293.43,300.32c-0.11,0.11 -2.12,-1.74 -5,-3.4s-5.48,-2.52 -5.43,-2.67a15.55,15.55 0 0 1 5.7,2.22a15.74,15.74 0 0 1 4.73,3.85z"/>
   <path id="svg_97" fill="#0466C8" d="m216.25,111.61l-20.5,9.9l8.84,61.68l-3.47,27.68a10.8,10.8 0 0 0 3.61,9.49l0,0l33.11,-0.65l23.16,-12.71l10.65,-1.8l-4.36,-21.07l2,-29.89l24.23,12.93a8.43,8.43 0 0 0 6.09,0.73l44.39,-11.53l-2.31,-17.12l-40.22,4.55l-30.63,-27.06l-22.8,-5.13l-4.04,-6.71l-23.33,0l-1.67,1.22a4.93,4.93 0 0 0 -1.69,2.31l-1.06,3.18z"/>
   <path id="svg_98" fill="#0466C8" d="m195.75,121.51a24.61,24.61 0 0 0 -9.23,12c-2.34,7.28 -7.63,36.71 -7.63,36.71l-23.29,-14.42l-13.42,14.11l31,27.38a15.79,15.79 0 0 0 17.29,2.39l0,0a15.8,15.8 0 0 0 8.79,-12.09l3.81,-27.91l-7.32,-38.17z"/>
   <polygon id="svg_99" fill="#ffbe9d" points="265.69 209.69 264.25 207.57 248.92 210.4 246.1 216.93 265.69 209.69"/>
   <path id="svg_100" fill="#0466C8" d="m204.73,220.36c13.7,5.51 28.33,3.48 41.37,-3.43c3.94,-2.09 7.59,-4.68 11.55,-6.74s8.34,-3.57 12.79,-3.26s8.93,2.76 10.71,6.85s0,9.65 -4.19,11.18l1.48,1.32c6.15,-2.86 9.07,-11.14 6.07,-17.23c-2.3,-4.66 -7.14,-7.45 -10.68,-11.26c-5.21,-5.6 -5.75,-16.44 -5.79,-24.88"/>
   <path id="svg_101" fill="#263238" d="m234.78,123.54a6.23,6.23 0 0 1 -1,0a3.88,3.88 0 0 0 -2.43,1.12a5.72,5.72 0 0 0 -1.21,3.91a13.26,13.26 0 0 0 1.11,5.25l0.39,0.86l-0.75,-0.56a40.35,40.35 0 0 1 -5.17,-4.57a38.09,38.09 0 0 1 -7.94,-12.16a27.78,27.78 0 0 1 -1.29,-4.22a10.69,10.69 0 0 1 -0.23,-1.61a47.5,47.5 0 0 0 1.86,5.69a40.08,40.08 0 0 0 8,11.94a42.44,42.44 0 0 0 5.08,4.53l-0.37,0.31a11.86,11.86 0 0 1 -0.85,-2.81a12.29,12.29 0 0 1 -0.23,-2.65a5.9,5.9 0 0 1 1.41,-4.12a3.85,3.85 0 0 1 2.63,-1.07a4.34,4.34 0 0 1 0.99,0.16z"/>
   <path id="svg_102" fill="#0466C8" d="m236,123.54c1.69,-0.73 4.19,0.34 5.4,1.72c0.8,0.92 1.25,2.18 2.3,2.78s4.39,1.07 5.36,0.33c0,0 0.59,-2.85 0.91,-4a88.54,88.54 0 0 0 2.27,-13.68c-3.22,-1.57 -2.33,-3.63 -8.14,-3.23a14.78,14.78 0 0 1 0.21,8.18"/>
   <path id="svg_103" fill="#263238" d="m244.32,115.61c-0.06,0 0.21,-0.77 0.33,-2.19a16.06,16.06 0 0 0 -0.72,-5.93l-0.07,-0.24l0.24,0a9.92,9.92 0 0 1 4.28,0.38a6.51,6.51 0 0 1 2,1.43a7.83,7.83 0 0 0 2,1.38l0.16,0.08l0,0.17c-0.26,2.43 -0.55,5.08 -1,7.82c-0.3,1.79 -0.66,3.52 -1.08,5.17s-0.75,3.24 -1.1,4.74l0,0.1l-0.06,0.05a3.18,3.18 0 0 1 -1.72,0.41a10.5,10.5 0 0 1 -1.6,-0.1a10.23,10.23 0 0 1 -1.5,-0.33a3.22,3.22 0 0 1 -1.31,-0.71a13.23,13.23 0 0 1 -1.54,-2.12a5.42,5.42 0 0 0 -1.58,-1.43a5.64,5.64 0 0 0 -2.88,-0.9a5.77,5.77 0 0 0 -1.08,0.16a2.24,2.24 0 0 1 1.08,-0.31a5.47,5.47 0 0 1 3,0.8a5.57,5.57 0 0 1 1.71,1.48a13.1,13.1 0 0 0 1.53,2a4.9,4.9 0 0 0 2.6,0.9a9.68,9.68 0 0 0 1.53,0.08a2.89,2.89 0 0 0 1.44,-0.33l-0.09,0.14c0.34,-1.51 0.66,-3.13 1.07,-4.77s0.77,-3.36 1.06,-5.14c0.46,-2.72 0.76,-5.36 1,-7.78l0.14,0.25a8.49,8.49 0 0 1 -2.16,-1.47a5.89,5.89 0 0 0 -1.83,-1.36a9.82,9.82 0 0 0 -4.08,-0.42l0.17,-0.25a15.59,15.59 0 0 1 0.57,6.07a11.12,11.12 0 0 1 -0.34,1.63a2.32,2.32 0 0 1 -0.17,0.54z"/>
   <path id="svg_104" fill="#263238" d="m278.48,210s0,-0.39 0,-1.14a7.07,7.07 0 0 0 -1,-3.09a10.4,10.4 0 0 0 -3.68,-3.55a15.52,15.52 0 0 0 -6.56,-1.8c-2.54,-0.23 -5.36,-0.09 -8.39,-0.3a31.63,31.63 0 0 1 -9.46,-2a19.52,19.52 0 0 1 -8.53,-6.38a14.85,14.85 0 0 1 -2.45,-5.13a19.62,19.62 0 0 1 -0.56,-5.83c0.15,-4 1.06,-7.71 1.61,-11.35a86.38,86.38 0 0 0 1,-10.56a87.59,87.59 0 0 0 -4.27,-29.68c-0.42,-1.37 -0.81,-2.41 -1.06,-3.12c-0.12,-0.34 -0.21,-0.61 -0.28,-0.82a1.2,1.2 0 0 1 -0.08,-0.28s0.05,0.08 0.13,0.26s0.19,0.47 0.33,0.8c0.28,0.7 0.7,1.73 1.16,3.1a83,83 0 0 1 3.12,11.76a87,87 0 0 1 1.43,18a85.57,85.57 0 0 1 -1,10.63c-0.54,3.66 -1.44,7.4 -1.59,11.29a16.24,16.24 0 0 0 2.9,10.64a19,19 0 0 0 8.3,6.23a31.19,31.19 0 0 0 9.31,2c3,0.22 5.82,0.11 8.4,0.37a15.7,15.7 0 0 1 6.74,1.95a10.41,10.41 0 0 1 3.7,3.7a6.85,6.85 0 0 1 0.92,3.18a4.12,4.12 0 0 1 -0.05,0.87c-0.06,0.19 -0.08,0.25 -0.09,0.25z"/>
   <path id="svg_105" fill="#263238" d="m263.52,191.79a8.9,8.9 0 0 1 -1.15,1.2c-0.38,0.37 -0.86,0.82 -1.44,1.31s-1.22,1.08 -2,1.65a54.71,54.71 0 0 1 -5.53,3.83a56.51,56.51 0 0 1 -15.16,6.35a53.83,53.83 0 0 1 -6.61,1.25c-0.95,0.15 -1.81,0.2 -2.57,0.26s-1.41,0.1 -1.95,0.11a9.69,9.69 0 0 1 -1.66,0a11.52,11.52 0 0 1 1.65,-0.19c0.53,0 1.18,-0.09 1.93,-0.19s1.61,-0.16 2.55,-0.33a62.12,62.12 0 0 0 6.54,-1.36a64.91,64.91 0 0 0 7.73,-2.63a63.63,63.63 0 0 0 7.3,-3.67a62.22,62.22 0 0 0 5.56,-3.7c0.77,-0.55 1.43,-1.11 2,-1.58s1.09,-0.89 1.49,-1.24a11.89,11.89 0 0 1 1.32,-1.07z"/>
   <path id="svg_106" fill="#263238" d="m257.08,159a1.93,1.93 0 0 1 -0.09,0.55l-0.35,1.56a22,22 0 0 1 -0.66,2.44c-0.3,0.94 -0.59,2 -1.06,3.18c-0.23,0.58 -0.46,1.19 -0.7,1.82s-0.57,1.26 -0.86,1.93c-0.58,1.35 -1.34,2.71 -2.11,4.16a57.69,57.69 0 0 1 -13.68,16.31c-1.3,1 -2.51,2 -3.74,2.8c-0.6,0.41 -1.17,0.83 -1.75,1.19l-1.67,1c-1,0.67 -2.07,1.15 -2.95,1.61a24,24 0 0 1 -2.28,1.07l-1.48,0.62a3.05,3.05 0 0 1 -0.53,0.18a2.45,2.45 0 0 1 0.49,-0.28l1.43,-0.7c0.63,-0.29 1.39,-0.66 2.24,-1.15s1.86,-1 2.89,-1.66l1.64,-1c0.57,-0.36 1.13,-0.79 1.73,-1.2c1.2,-0.81 2.39,-1.8 3.67,-2.82a65.3,65.3 0 0 0 7.51,-7.48a66.39,66.39 0 0 0 6.06,-8.69c0.78,-1.44 1.55,-2.78 2.13,-4.11c0.31,-0.66 0.63,-1.29 0.89,-1.91l0.72,-1.8c0.5,-1.13 0.81,-2.2 1.13,-3.13s0.57,-1.74 0.75,-2.41l0.44,-1.53a2,2 0 0 1 0.19,-0.55z"/>
   <path id="svg_107" fill="#263238" d="m214.91,225.38a6,6 0 0 1 -1.83,-1.36a13.83,13.83 0 0 1 -4.17,-9.93a6.26,6.26 0 0 1 0.3,-2.25c0.09,0 0,0.87 0.07,2.24a15.67,15.67 0 0 0 4.07,9.69c0.93,1.01 1.65,1.54 1.56,1.61z"/>
   <path id="svg_108" fill="#263238" d="m214.18,217.59c0.15,0 -0.13,1.33 0,2.9s0.62,2.8 0.48,2.87a6,6 0 0 1 -0.49,-5.77l0.01,0z"/>
   <path id="svg_109" fill="#263238" d="m204.31,181.79a1.6,1.6 0 0 1 -0.12,-0.47c-0.07,-0.37 -0.15,-0.82 -0.25,-1.36c-0.21,-1.26 -0.5,-3 -0.84,-5c-0.7,-4.23 -1.7,-10.07 -2.9,-16.5s-2.37,-12.25 -3.2,-16.46c-0.42,-2 -0.77,-3.72 -1,-5c-0.11,-0.54 -0.19,-1 -0.26,-1.35a1.51,1.51 0 0 1 -0.06,-0.49a1.9,1.9 0 0 1 0.16,0.46c0.1,0.37 0.21,0.81 0.35,1.34c0.3,1.16 0.71,2.85 1.19,4.94c1,4.18 2.19,10 3.4,16.42s2.13,12.3 2.74,16.54c0.31,2.13 0.54,3.85 0.68,5c0.06,0.55 0.11,1 0.15,1.38a1.6,1.6 0 0 1 -0.04,0.55z"/>
   <path id="svg_110" fill="#263238" d="m268.31,181.79a2.75,2.75 0 0 1 -0.05,-0.49c0,-0.39 0,-0.86 0,-1.42c0,-1.24 0,-3 0,-5.23c0,-4.41 0.24,-10.5 0.75,-17.21s1.18,-12.77 1.7,-17.15c0.27,-2.13 0.49,-3.88 0.66,-5.18q0.12,-0.84 0.21,-1.41a2.34,2.34 0 0 1 0.1,-0.48a1.59,1.59 0 0 1 0,0.5c0,0.38 -0.07,0.85 -0.11,1.41c-0.12,1.31 -0.29,3.06 -0.49,5.2c-0.43,4.38 -1,10.44 -1.55,17.15s-0.76,12.78 -0.9,17.18c-0.06,2.14 -0.11,3.9 -0.15,5.22l-0.05,1.42a1.61,1.61 0 0 1 -0.12,0.49z"/>
   <path id="svg_111" fill="#263238" d="m188.35,184.37c-0.17,0.07 -1.49,-3.57 -4,-7.53s-5.55,-6.45 -5.42,-6.58a9.18,9.18 0 0 1 2,1.59a27.5,27.5 0 0 1 3.9,4.7a32.54,32.54 0 0 1 2.8,5.42a10.08,10.08 0 0 1 0.72,2.4z"/>
   <path id="svg_112" fill="#263238" d="m190.07,180a19.1,19.1 0 0 1 -1.12,-2a15.48,15.48 0 0 0 -3.46,-4a21.9,21.9 0 0 0 -4.57,-2.79a13.18,13.18 0 0 1 -2,-1a7.84,7.84 0 0 1 2.17,0.64a17.51,17.51 0 0 1 4.76,2.73a13.44,13.44 0 0 1 3.45,4.27a6.52,6.52 0 0 1 0.77,2.15z"/>
   <path id="svg_113" fill="#fafafa" d="m200.37,156s-0.05,0.16 -0.21,0.44a4.29,4.29 0 0 1 -0.91,1.07a6.07,6.07 0 0 1 -4.9,1.32a9.49,9.49 0 0 1 -6.16,-4.35a21.2,21.2 0 0 1 -2,-4c-0.28,-0.73 -0.56,-1.47 -0.8,-2.25a6.22,6.22 0 0 1 -0.28,-2.52a3.47,3.47 0 0 1 1.22,-2.27a2.89,2.89 0 0 1 2.47,-0.44a4.86,4.86 0 0 1 3.29,3.12a4.69,4.69 0 0 1 -0.41,4.09a5.11,5.11 0 0 1 -2.85,2.19a4.53,4.53 0 0 1 -3,-0.14a5,5 0 0 1 -1.85,-1.26a3.9,3.9 0 0 1 -0.78,-1.17c-0.13,-0.3 -0.17,-0.46 -0.15,-0.47a6.39,6.39 0 0 0 1.07,1.5a5.07,5.07 0 0 0 1.81,1.13a4.34,4.34 0 0 0 2.75,0.06a4.73,4.73 0 0 0 2.59,-2.06a4.25,4.25 0 0 0 0.33,-3.7a4.36,4.36 0 0 0 -3,-2.79a2.38,2.38 0 0 0 -2,0.36a2.92,2.92 0 0 0 -1,1.92c-0.18,1.55 0.52,3.07 1,4.51a20,20 0 0 0 2,4a9.23,9.23 0 0 0 5.82,4.26a6,6 0 0 0 4.71,-1.12a7.56,7.56 0 0 0 1.24,-1.43z"/>
   <path id="svg_114" fill="#fafafa" d="m239.69,171.33l-0.28,0.23c-0.2,0.17 -0.48,0.38 -0.83,0.65a22.1,22.1 0 0 1 -3.44,2.16a10.53,10.53 0 0 1 -2.81,0.94a7.35,7.35 0 0 1 -3.51,-0.23a12.38,12.38 0 0 1 -6.33,-5.58a20.39,20.39 0 0 1 0.18,-21.25a11,11 0 0 1 4.71,-4.4a6.14,6.14 0 0 1 3.37,-0.43a4.61,4.61 0 0 1 3,1.71a4.9,4.9 0 0 1 0.94,3.41a7.68,7.68 0 0 1 -1.08,3.4a11.11,11.11 0 0 1 -5.56,4.51a14.31,14.31 0 0 1 -7.14,0.74a14.65,14.65 0 0 1 -6.43,-2.67a22.06,22.06 0 0 1 -7.57,-10.6a12.88,12.88 0 0 1 -0.92,-6.07a6.08,6.08 0 0 1 1.17,-2.76a4.2,4.2 0 0 1 2.44,-1.59a5.34,5.34 0 0 1 5,1.74a5.71,5.71 0 0 1 1.21,4.79a7.59,7.59 0 0 1 -2.05,4a9.72,9.72 0 0 1 -3.38,2.21a15.23,15.23 0 0 1 -6.35,1a36.62,36.62 0 0 1 -4,-0.41l-1.05,-0.17l-0.35,-0.07l0.36,0l1.05,0.12c0.92,0.09 2.28,0.27 4,0.31a15.45,15.45 0 0 0 6.24,-1a9.37,9.37 0 0 0 3.25,-2.17a7.27,7.27 0 0 0 1.93,-3.87a5.36,5.36 0 0 0 -1.15,-4.47a5,5 0 0 0 -4.64,-1.58a4.6,4.6 0 0 0 -3.25,4a12.16,12.16 0 0 0 0.92,5.84a21.6,21.6 0 0 0 7.4,10.35a14.27,14.27 0 0 0 6.22,2.56a13.69,13.69 0 0 0 6.87,-0.71a10.52,10.52 0 0 0 5.3,-4.28a7.3,7.3 0 0 0 1,-3.18a4.34,4.34 0 0 0 -0.83,-3.05a4.15,4.15 0 0 0 -2.7,-1.53a5.67,5.67 0 0 0 -3.1,0.39a10.53,10.53 0 0 0 -4.49,4.2a19.57,19.57 0 0 0 -3.05,11.1a19.83,19.83 0 0 0 2.77,9.7a12.1,12.1 0 0 0 6.11,5.49a8.26,8.26 0 0 0 6.14,-0.61a24.5,24.5 0 0 0 3.47,-2.07l0.86,-0.6a1.68,1.68 0 0 1 0.38,-0.2z"/>
   <path id="svg_115" fill="#fafafa" d="m212.1,115.22a3.38,3.38 0 0 1 -0.32,0.89a13.72,13.72 0 0 1 -1.29,2.25a16.42,16.42 0 0 1 -14.82,7.07a13.65,13.65 0 0 1 -2.55,-0.41a3,3 0 0 1 -0.9,-0.32c0,-0.09 1.32,0.29 3.47,0.37a17.21,17.21 0 0 0 14.51,-6.92c1.29,-1.72 1.8,-2.98 1.9,-2.93z"/>
   <path id="svg_116" fill="#fafafa" d="m226.87,119.47a9.23,9.23 0 0 0 -2.82,1.39a9.09,9.09 0 0 0 -1.83,2.56c-0.06,0 -0.08,-0.4 0.12,-1a4.67,4.67 0 0 1 3.54,-3c0.61,-0.09 0.99,-0.01 0.99,0.05z"/>
   <path id="svg_117" fill="#fafafa" d="m248,125.35a2.14,2.14 0 0 1 -0.85,-0.39a6.92,6.92 0 0 1 -1.88,-1.73a6.83,6.83 0 0 1 -1.39,-3.54a3.38,3.38 0 0 1 0.62,-2.25a2.31,2.31 0 0 1 2.31,-1a2.55,2.55 0 0 1 1.82,1.75a2.39,2.39 0 0 1 -0.46,2.3a3.23,3.23 0 0 1 -3.62,1a4.13,4.13 0 0 1 -2,-1.64a2,2 0 0 1 -0.37,-0.86s0.18,0.29 0.54,0.74a4.17,4.17 0 0 0 1.93,1.41a2.87,2.87 0 0 0 3.13,-0.91a1.94,1.94 0 0 0 0.35,-1.85a2.09,2.09 0 0 0 -1.45,-1.39a1.81,1.81 0 0 0 -1.8,0.78a3,3 0 0 0 -0.54,1.91a6.68,6.68 0 0 0 1.21,3.36a10.36,10.36 0 0 0 2.45,2.31z"/>
   <path id="svg_118" fill="#fafafa" d="m252,113.68a12.67,12.67 0 0 0 -3.31,-2.31a13,13 0 0 0 -4,-0.68c0,-0.06 0.43,-0.24 1.2,-0.29a6.55,6.55 0 0 1 3,0.49a6.81,6.81 0 0 1 2.46,1.73c0.52,0.58 0.71,1.03 0.65,1.06z"/>
   <path id="svg_119" fill="#fafafa" d="m279.5,125.32s-0.06,0.05 -0.19,0.12l-0.6,0.32c-0.54,0.26 -1.34,0.62 -2.41,1a29.06,29.06 0 0 1 -9.42,1.77a13.76,13.76 0 0 1 -3.2,-0.31a7,7 0 0 1 -3.15,-1.54a4.68,4.68 0 0 1 -1.55,-3.42a5.81,5.81 0 0 1 1.33,-3.76a7.73,7.73 0 0 1 8,-2a9.3,9.3 0 0 1 6.38,6.18a9.13,9.13 0 0 1 -1.91,8.67a14,14 0 0 1 -7.4,4a43.22,43.22 0 0 1 -7.59,0.77a41.55,41.55 0 0 0 -6.55,0.64a13.28,13.28 0 0 0 -8.05,4.59a9.56,9.56 0 0 0 -1.54,3.11a0.67,0.67 0 0 1 0,-0.23c0,-0.15 0.07,-0.38 0.16,-0.66a8.44,8.44 0 0 1 1.18,-2.34a13.29,13.29 0 0 1 8.15,-4.83a40,40 0 0 1 6.6,-0.71a42.66,42.66 0 0 0 7.5,-0.8a13.59,13.59 0 0 0 7.13,-3.86a8.62,8.62 0 0 0 1.79,-8.18a8.79,8.79 0 0 0 -6,-5.84a7.28,7.28 0 0 0 -7.46,1.86a5.32,5.32 0 0 0 -1.24,3.45a4.22,4.22 0 0 0 1.38,3.11a6.67,6.67 0 0 0 3,1.47a13.36,13.36 0 0 0 3.1,0.33a30.3,30.3 0 0 0 9.36,-1.59c1.06,-0.37 1.87,-0.7 2.42,-0.93a5.91,5.91 0 0 1 0.78,-0.39z"/>
   <path id="svg_120" fill="#fafafa" d="m254.56,164.59c-0.09,0 -0.43,-0.84 -1.35,-2a10.28,10.28 0 0 0 -10.21,-3.85c-1.45,0.28 -2.29,0.7 -2.33,0.62a5.4,5.4 0 0 1 2.25,-1a9.87,9.87 0 0 1 10.6,4a5.39,5.39 0 0 1 1.04,2.23z"/>
   <path id="svg_121" fill="#fafafa" d="m266.24,172.15a4.87,4.87 0 0 1 -1.37,2a8.39,8.39 0 0 1 -11,0.87a5,5 0 0 1 -1.67,-1.78c0.07,-0.07 0.64,0.68 1.88,1.47a8.79,8.79 0 0 0 5.39,1.4a8.89,8.89 0 0 0 5.11,-2.23c1.13,-0.96 1.58,-1.79 1.66,-1.73z"/>
   <path id="svg_122" fill="#fafafa" d="m269.28,152.25c0,0.08 -0.65,-0.29 -1.71,-0.57a7.34,7.34 0 0 0 -7.66,2.45c-0.7,0.85 -1,1.49 -1.06,1.46a3.54,3.54 0 0 1 0.77,-1.68a7,7 0 0 1 8.06,-2.58a3.56,3.56 0 0 1 1.6,0.92z"/>
   <path id="svg_123" fill="#fafafa" d="m306.54,143.05a5.19,5.19 0 0 1 0.18,0.74a5.3,5.3 0 0 1 0.12,0.92a7.31,7.31 0 0 1 0,1.27a12.6,12.6 0 0 1 -2.87,7.45a13.13,13.13 0 0 1 -4.27,3.57a13.28,13.28 0 0 1 -6.24,1.43a16.8,16.8 0 0 1 -12.85,-6.35a10.11,10.11 0 0 1 -1.81,-3.47a6.59,6.59 0 0 1 0.06,-3.81a4.91,4.91 0 0 1 2.34,-2.86a5.34,5.34 0 0 1 3.52,-0.41a5.87,5.87 0 0 1 3,1.57a7,7 0 0 1 1.64,2.71a9.13,9.13 0 0 1 -0.05,5.58a10.53,10.53 0 0 1 -2.36,4a11,11 0 0 1 -2.75,2.12a10.53,10.53 0 0 1 -2,0.82a5,5 0 0 1 -0.76,0.14a14.84,14.84 0 0 0 2.7,-1.13a10.8,10.8 0 0 0 4.86,-6a8.81,8.81 0 0 0 0,-5.33a6.39,6.39 0 0 0 -1.55,-2.52a5.45,5.45 0 0 0 -2.74,-1.43a4.93,4.93 0 0 0 -3.2,0.38a4.38,4.38 0 0 0 -2.08,2.58a6,6 0 0 0 -0.05,3.51a9.45,9.45 0 0 0 1.72,3.29a16.41,16.41 0 0 0 12.44,6.19a12.73,12.73 0 0 0 10.27,-4.74a12.79,12.79 0 0 0 2.95,-7.23a20.07,20.07 0 0 0 -0.22,-2.99z"/>
   <path id="svg_124" fill="#fafafa" d="m314.25,163.76a2.84,2.84 0 0 1 -0.61,-0.69a7.18,7.18 0 0 1 -1.09,-2.26a9.23,9.23 0 0 1 -0.15,-3.72a34.17,34.17 0 0 1 1,-4.42a31.74,31.74 0 0 1 3.58,-7.38c0.56,-0.88 1,-1.59 1.38,-2.06a3.6,3.6 0 0 1 0.57,-0.72a23.92,23.92 0 0 1 -1.63,3a37,37 0 0 0 -3.4,7.34a40.89,40.89 0 0 0 -1,4.34a9.35,9.35 0 0 0 0,3.56a13.32,13.32 0 0 0 1.35,3.01z"/>
   <path id="svg_125" fill="#fafafa" d="m333.19,140.75a2.45,2.45 0 0 1 0.3,0.72a12.5,12.5 0 0 1 0.5,2.05a18.33,18.33 0 0 1 -2.99,13.37a12.3,12.3 0 0 1 -1.32,1.65c-0.35,0.36 -0.55,0.55 -0.58,0.53s0.67,-0.89 1.59,-2.38a20.92,20.92 0 0 0 2.57,-6.31a20.63,20.63 0 0 0 0.33,-6.8c-0.17,-1.75 -0.49,-2.8 -0.4,-2.83z"/>
   <path id="svg_126" fill="#fafafa" d="m267.75,187.52a2.26,2.26 0 0 1 -0.43,-0.23a12.72,12.72 0 0 0 -1.22,-0.66a14.47,14.47 0 0 0 -4.88,-1.37a14.81,14.81 0 0 0 -7.34,1.18a12.6,12.6 0 0 0 -3.67,2.43a7.5,7.5 0 0 0 -1.44,1.78a3.57,3.57 0 0 0 -0.5,2.2a2.62,2.62 0 0 0 1.06,1.88a2.14,2.14 0 0 0 2,0.09a3.58,3.58 0 0 0 1.86,-3.51a7.11,7.11 0 0 0 -3.71,-6a7.27,7.27 0 0 0 -4.9,-0.64a17.24,17.24 0 0 0 -1.78,0.57a1.74,1.74 0 0 1 0.42,-0.27a7,7 0 0 1 1.31,-0.5a7.29,7.29 0 0 1 5.12,0.52a7.46,7.46 0 0 1 4,6.33a5.31,5.31 0 0 1 -0.43,2.26a3.37,3.37 0 0 1 -1.7,1.73a2.65,2.65 0 0 1 -2.53,-0.13a3.13,3.13 0 0 1 -1.3,-2.25a4,4 0 0 1 0.57,-2.51a7.77,7.77 0 0 1 1.54,-1.9a13,13 0 0 1 3.83,-2.5a15,15 0 0 1 7.57,-1.11a13.45,13.45 0 0 1 4.93,1.56a8.82,8.82 0 0 1 1.19,0.75c0.31,0.17 0.45,0.28 0.43,0.3z"/>
   <path id="svg_127" fill="#fafafa" d="m271.37,195.79a6.51,6.51 0 0 1 -1.21,2.29c-0.79,1.19 -1.52,2.09 -1.64,2a6.51,6.51 0 0 1 1.21,-2.29c0.79,-1.18 1.52,-2.08 1.64,-2z"/>
   <path id="svg_128" fill="#fafafa" d="m284.07,210.1c-0.08,0 -0.22,-0.35 -0.57,-0.87a5.17,5.17 0 0 0 -4.07,-2.26c-0.62,0 -1,0.05 -1,0s0.35,-0.27 1,-0.34a4.55,4.55 0 0 1 4.4,2.45c0.28,0.58 0.3,1.01 0.24,1.02z"/>
   <path id="svg_129" fill="#fafafa" d="m242.76,205c0,0.07 -1.2,0.68 -3.13,1.79a27.05,27.05 0 0 0 -6.8,5.25a14.51,14.51 0 0 0 -3.61,7.64a18.06,18.06 0 0 0 0.06,3.57a3,3 0 0 1 -0.28,-0.94a9.06,9.06 0 0 1 -0.14,-2.66a14,14 0 0 1 3.58,-7.95a24.54,24.54 0 0 1 7,-5.24c1,-0.51 1.82,-0.89 2.39,-1.14a3.15,3.15 0 0 1 0.93,-0.32z"/>
   <path id="svg_130" fill="#fafafa" d="m257.45,209.89s-0.56,-0.33 -1.09,-1.2a6.69,6.69 0 0 1 0.63,-7.47a2.93,2.93 0 0 1 1.27,-1c0.06,0.08 -0.43,0.45 -1,1.23a7.18,7.18 0 0 0 -0.59,7.07c0.43,0.85 0.85,1.31 0.78,1.37z"/>
   <path id="svg_131" fill="#fafafa" d="m234.49,191.77s-0.18,-0.22 -0.58,-0.58a4.12,4.12 0 0 0 -2.08,-0.92a5.2,5.2 0 0 0 -3.49,0.72a10.67,10.67 0 0 0 -3.31,3.5c-1,1.52 -1.82,3.35 -3.09,5.13a10.93,10.93 0 0 1 -5.51,4.12a10.23,10.23 0 0 1 -7.57,-0.44a10.84,10.84 0 0 1 -5.57,-5.94a6.47,6.47 0 0 1 -0.17,-4.21a5.87,5.87 0 0 1 2.6,-3.18a6,6 0 0 1 3.86,-0.89a6.4,6.4 0 0 1 3.43,1.63a8.39,8.39 0 0 1 2.71,6.29a10.36,10.36 0 0 1 -1.86,5.71a11.63,11.63 0 0 1 -3.62,3.4a14.61,14.61 0 0 1 -3.43,1.5a16.18,16.18 0 0 1 -2.31,0.48l-0.61,0.07l-0.22,0a5.72,5.72 0 0 1 0.81,-0.17a17.56,17.56 0 0 0 2.27,-0.58a14.63,14.63 0 0 0 3.34,-1.55a11.39,11.39 0 0 0 3.46,-3.35a10.07,10.07 0 0 0 1.74,-5.51a8,8 0 0 0 -2.6,-5.93a5.86,5.86 0 0 0 -3.17,-1.49a5.54,5.54 0 0 0 -3.54,0.82a5.47,5.47 0 0 0 -2.37,2.91a6,6 0 0 0 0.17,3.88a10.39,10.39 0 0 0 5.3,5.65a9.71,9.71 0 0 0 7.2,0.44a10.47,10.47 0 0 0 5.31,-3.92c1.25,-1.71 2.11,-3.54 3.13,-5.07a10.85,10.85 0 0 1 3.48,-3.55a5.35,5.35 0 0 1 3.66,-0.67a4.09,4.09 0 0 1 2.12,1a2.53,2.53 0 0 1 0.51,0.7z"/>
   <path id="svg_132" fill="#fafafa" d="m234.82,207.35a4.59,4.59 0 0 1 -1.61,-1.27a11,11 0 0 1 -2.77,-9.28a4.79,4.79 0 0 1 0.65,-2c0.09,0 -0.15,0.77 -0.28,2a12.2,12.2 0 0 0 2.67,9c0.79,0.99 1.4,1.48 1.34,1.55z"/>
   <path id="svg_133" fill="#fafafa" d="m238.5,184.3s-0.7,-0.34 -2,-0.85a24,24 0 0 0 -14.4,-1.08a19.62,19.62 0 0 0 -4.8,1.8a3.23,3.23 0 0 0 -1.59,1.9a1.82,1.82 0 0 0 1,2a1.06,1.06 0 0 0 1,-0.32a2.49,2.49 0 0 0 0.6,-1.11a9.16,9.16 0 0 0 0.23,-2.66a11.9,11.9 0 0 0 -1.28,-4.91a11.48,11.48 0 0 0 -2.82,-3.63a11.29,11.29 0 0 0 -3.49,-2a12.24,12.24 0 0 0 -5.79,-0.58c-1.38,0.22 -2.11,0.53 -2.12,0.48a2,2 0 0 1 0.51,-0.24a11.12,11.12 0 0 1 7.53,0a11.73,11.73 0 0 1 3.64,2a12,12 0 0 1 3,3.74a12.34,12.34 0 0 1 1.36,5.11a9.71,9.71 0 0 1 -0.24,2.82a3.16,3.16 0 0 1 -0.73,1.34a1.6,1.6 0 0 1 -1.56,0.45a2,2 0 0 1 -1.19,-1.07a2.63,2.63 0 0 1 -0.22,-1.54a3.71,3.71 0 0 1 1.84,-2.24a19.31,19.31 0 0 1 4.95,-1.82a23.7,23.7 0 0 1 8.86,-0.33a22.27,22.27 0 0 1 5.73,1.68a14.15,14.15 0 0 1 1.48,0.76q0.52,0.27 0.5,0.3z"/>
   <path id="svg_134" fill="#fafafa" d="m160.57,187.17s0.62,-0.48 1.61,-1.48a13.89,13.89 0 0 0 3.14,-5a10.86,10.86 0 0 0 -0.25,-8.46a10.71,10.71 0 0 0 -3.19,-3.94a9,9 0 0 0 -5,-1.89a5.77,5.77 0 0 0 -2.64,0.55a3.38,3.38 0 0 0 -1.76,1.79a2.57,2.57 0 0 0 0.36,2.32a3.77,3.77 0 0 0 1.89,1.41a5.19,5.19 0 0 0 4.33,-0.74a7.28,7.28 0 0 0 2.63,-3a15.15,15.15 0 0 0 1.25,-5.74c0,-0.66 0,-1.2 0.07,-1.63a1.88,1.88 0 0 1 0.05,-0.56a1.88,1.88 0 0 1 0,0.56c0,0.38 0,0.93 0,1.63a14.5,14.5 0 0 1 -1.06,6.01a7.64,7.64 0 0 1 -2.72,3.18a5.6,5.6 0 0 1 -4.71,0.83a4.18,4.18 0 0 1 -2.16,-1.58a3.05,3.05 0 0 1 -0.43,-2.77a3.79,3.79 0 0 1 2,-2.08a6.34,6.34 0 0 1 2.89,-0.61a9.46,9.46 0 0 1 5.33,2a11.16,11.16 0 0 1 3.32,4.15a10.5,10.5 0 0 1 1,4.69a12.05,12.05 0 0 1 -0.82,4.1a13.65,13.65 0 0 1 -3.35,5a8.81,8.81 0 0 1 -1.26,1c-0.34,0.18 -0.51,0.28 -0.52,0.26z"/>
   <path id="svg_135" fill="#fafafa" d="m181.3,202.05a3.71,3.71 0 0 1 -0.78,-0.83a16.1,16.1 0 0 1 -1.72,-2.6a18.45,18.45 0 0 1 1.29,-19.57a16.48,16.48 0 0 1 2,-2.35a4.27,4.27 0 0 1 0.91,-0.7c0.07,0.08 -1.18,1.14 -2.62,3.29a19,19 0 0 0 -1.27,19.19a39.23,39.23 0 0 0 2.19,3.57z"/>
   <path id="svg_136" fill="#fafafa" d="m200.84,180.3c-0.09,0 -0.51,-1.5 -1.75,-3.71a20.56,20.56 0 0 0 -15.8,-10.45c-2.52,-0.28 -4.1,-0.06 -4.1,-0.16a4.24,4.24 0 0 1 1.1,-0.19a18.35,18.35 0 0 1 3,0a19.78,19.78 0 0 1 16.1,10.65a17,17 0 0 1 1.17,2.8a4,4 0 0 1 0.28,1.06z"/>
   <g id="svg_137" opacity="0.3">
    <path id="svg_138" d="m228.17,208.29c-1,0.41 -0.87,1.93 -0.07,2.59a4.28,4.28 0 0 0 3,0.64a38.62,38.62 0 0 0 29.63,-16.64c-9,7.41 -20.9,10.22 -32.31,12.8"/>
   </g>
   <g id="svg_139" opacity="0.3">
    <path id="svg_140" d="m226.38,198.09c-1,-1.51 -0.32,-3.63 1,-4.91a16.78,16.78 0 0 1 4.62,-2.75a29.18,29.18 0 0 0 13.48,-13.83c1.82,-3.94 3.19,-8.77 7.22,-10.39a39.06,39.06 0 0 1 -25.71,30.66"/>
   </g>
   <g id="svg_141" opacity="0.3">
    <path id="svg_142" d="m198,146.24a101.48,101.48 0 0 1 -2.3,32.68a27.53,27.53 0 0 0 -1.11,6.89a9.16,9.16 0 0 0 3.32,6.47c1.66,-3.83 1.69,-7.52 2.39,-11.64c0.63,-3.71 1.69,-12.38 1.69,-12.51c0.15,-7.58 -1.64,-14.08 -4.56,-20.91"/>
   </g>
   <g id="svg_143" opacity="0.3">
    <path id="svg_144" d="m216.84,113.41a39.92,39.92 0 0 0 11.32,21.24c2.21,2.15 5,4.14 8.05,4a18.84,18.84 0 0 1 -1.55,-11.78a48.71,48.71 0 0 0 8.24,4.48a16.35,16.35 0 0 0 9.2,1l1.9,-16.53a3.09,3.09 0 0 0 -0.17,-1.86a1.07,1.07 0 0 0 -1.59,-0.38a1.59,1.59 0 0 0 -0.31,0.73c-1.12,4.85 -1.75,9.2 -2.88,14.06c-0.81,0.8 -3.3,0.47 -4.94,-0.14c-1.43,-0.53 -2,-1.71 -2.92,-2.9s-0.78,-1 -2.18,-1.58c-2.58,-1.09 -7.53,-0.22 -8.61,2.09s-0.26,5.36 0.46,7.64a34.65,34.65 0 0 1 -14.59,-20.24"/>
   </g>
   <g id="svg_145" opacity="0.3">
    <path id="svg_146" d="m271.37,136.87c-0.2,0.4 6.23,22.08 6.23,22.08l-8.33,-4.75l2.1,-17.33z"/>
   </g>
   <path id="svg_147" fill="#ffbe9d" d="m219.61,74l0,34.51a8.35,8.35 0 0 0 2,5.39l0,0a25.08,25.08 0 0 0 6.94,5.74l7,3.93l5.76,-5.15a8.39,8.39 0 0 0 2.79,-5.91c0.1,-2.52 0.09,-5 0.09,-5s9.76,-0.7 10.68,-10.32c0.43,-4.54 0.57,-13.82 0.59,-22.37a18.72,18.72 0 0 0 -17.26,-18.82l-0.27,0a17.89,17.89 0 0 0 -18.32,18z"/>
   <path id="svg_148" fill="#eb996e" d="m244.11,107.43a23.35,23.35 0 0 1 -12.23,-4.75s2.52,7.3 12.21,7.23l0.02,-2.48z"/>
   <path id="svg_149" fill="#263238" d="m252.53,80.93a1.38,1.38 0 0 1 -1.44,1.28a1.32,1.32 0 0 1 -1.31,-1.36a1.38,1.38 0 0 1 1.44,-1.28a1.31,1.31 0 0 1 1.31,1.36z"/>
   <path id="svg_150" fill="#263238" d="m252.92,78.63c-0.18,0.16 -1.16,-0.7 -2.64,-0.82s-2.63,0.54 -2.77,0.34s0.12,-0.39 0.63,-0.7a3.79,3.79 0 0 1 2.23,-0.49a3.62,3.62 0 0 1 2.09,0.87c0.43,0.39 0.54,0.72 0.46,0.8z"/>
   <path id="svg_151" fill="#263238" d="m238.57,80.23a1.38,1.38 0 0 1 -1.44,1.28a1.33,1.33 0 0 1 -1.32,-1.36a1.39,1.39 0 0 1 1.44,-1.28a1.32,1.32 0 0 1 1.32,1.36z"/>
   <path id="svg_152" fill="#263238" d="m238.35,77.7c-0.19,0.16 -1.17,-0.69 -2.65,-0.81s-2.62,0.53 -2.77,0.33s0.13,-0.39 0.63,-0.7a3.85,3.85 0 0 1 2.24,-0.52a3.68,3.68 0 0 1 2.09,0.87c0.42,0.42 0.55,0.75 0.46,0.83z"/>
   <path id="svg_153" fill="#263238" d="m242.81,89.12a9.57,9.57 0 0 1 2.44,-0.24c0.38,0 0.75,0 0.83,-0.3a1.91,1.91 0 0 0 -0.16,-1.14c-0.28,-1 -0.57,-1.94 -0.88,-3c-1.21,-4.23 -2,-7.69 -1.88,-7.74s1.29,3.34 2.5,7.57c0.29,1 0.57,2 0.83,3a2.18,2.18 0 0 1 0.08,1.5a1,1 0 0 1 -0.67,0.5a2.51,2.51 0 0 1 -0.65,0a10.32,10.32 0 0 1 -2.44,-0.15z"/>
   <path id="svg_154" fill="#263238" d="m238.37,89.78c0.24,0 0.11,1.62 1.39,2.87s3,1.22 3,1.44s-0.4,0.29 -1.13,0.25a4,4 0 0 1 -2.51,-1.12a3.49,3.49 0 0 1 -1.06,-2.4c-0.01,-0.67 0.2,-1.06 0.31,-1.04z"/>
   <path id="svg_155" fill="#263238" d="m239.21,71.93c-0.18,0.39 -1.64,0.08 -3.39,0.14s-3.2,0.42 -3.4,0c-0.09,-0.18 0.18,-0.54 0.78,-0.88a5.89,5.89 0 0 1 5.18,-0.14c0.62,0.35 0.91,0.69 0.83,0.88z"/>
   <path id="svg_156" fill="#263238" d="m252.73,74.3c-0.29,0.31 -1.28,-0.12 -2.5,-0.24s-2.28,0 -2.49,-0.33c-0.1,-0.18 0.1,-0.51 0.58,-0.79a3.64,3.64 0 0 1 4,0.46c0.43,0.38 0.54,0.74 0.41,0.9z"/>
   <path id="svg_157" fill="#263238" d="m230.94,64.27l-0.06,0a7.6,7.6 0 0 0 -3.22,4.73l0,0.2c-0.61,2.71 -0.77,5.51 -1.4,8.22s-0.51,4.78 -3.23,5.39a3.6,3.6 0 0 1 -3.78,-1.53a2.46,2.46 0 0 1 -0.25,-1.28c0,-6.68 -1.3,-9.27 -0.72,-16.2a5.88,5.88 0 0 1 2.82,-4.56c1.54,-0.92 3.4,-1.86 5,-1s3.4,4.09 4.54,5.48"/>
   <path id="svg_158" fill="#ffbe9d" d="m222.49,78.59c-0.15,-0.08 -6.45,-2.5 -6.79,4.1s6.37,5.58 6.39,5.39s0.4,-9.49 0.4,-9.49z"/>
   <path id="svg_159" fill="#eb996e" d="m220.2,85.47s-0.12,0.08 -0.32,0.16a1.12,1.12 0 0 1 -0.86,0a2.84,2.84 0 0 1 -1.19,-2.63a3.7,3.7 0 0 1 0.41,-1.63a1.33,1.33 0 0 1 0.91,-0.84a0.59,0.59 0 0 1 0.66,0.35c0.08,0.19 0,0.32 0.06,0.33s0.15,-0.1 0.11,-0.37a0.7,0.7 0 0 0 -0.24,-0.43a0.82,0.82 0 0 0 -0.62,-0.2a1.61,1.61 0 0 0 -1.26,1a4,4 0 0 0 -0.49,1.82a3,3 0 0 0 1.53,2.94a1.26,1.26 0 0 0 1.06,-0.12c0.22,-0.22 0.26,-0.36 0.24,-0.38z"/>
   <path id="svg_160" fill="#263238" d="m225.72,59.24c-1.41,-2.77 3.35,-6.18 6.68,-6.94s7.49,1.19 10.64,2.53c2,0.84 3.94,2 6.09,2a14.74,14.74 0 0 0 4.26,-0.71a10.83,10.83 0 0 1 4.29,-0.49a4,4 0 0 1 3.32,2.53a2.49,2.49 0 0 1 -2,3.22a3.25,3.25 0 1 1 0.36,6.07c1,-0.64 2.34,0.65 2.12,1.81a3.41,3.41 0 0 1 -2.45,2.31c-2.85,1 -6,0.33 -8.78,-0.86s-5.28,-2.9 -8,-4.16s-7.3,-3.5 -10.21,-2.73c-2.15,0.56 -3.8,2.95 -4.93,2.29a4,4 0 0 1 -1.83,-3.11a11.62,11.62 0 0 1 0.44,-3.74"/>
   <path id="svg_161" fill="#455a64" d="m259.83,61.27c-0.05,0 -0.38,0.45 -1.15,1.16a9.06,9.06 0 0 1 -3.86,2.06a8.35,8.35 0 0 1 -6.26,-0.78c-2.15,-1.18 -3.9,-3.35 -5.95,-5.43a13.74,13.74 0 0 0 -7.11,-4.16a7.62,7.62 0 0 0 -6.5,1.66a5.72,5.72 0 0 0 -1.84,4.13a4.22,4.22 0 0 0 0.18,1.23a1.32,1.32 0 0 0 0.18,0.4a9.93,9.93 0 0 1 -0.11,-1.62a5.64,5.64 0 0 1 1.9,-3.8a7.22,7.22 0 0 1 6.06,-1.41a13.33,13.33 0 0 1 6.76,4c2,2 3.81,4.25 6.12,5.49a9,9 0 0 0 10.58,-1.62a7.09,7.09 0 0 0 0.78,-1c0.17,-0.17 0.24,-0.3 0.22,-0.31z"/>
   <path id="svg_162" fill="#455a64" d="m220.84,78.17s0.3,-0.16 0.59,-0.66a4.45,4.45 0 0 0 0.53,-2.36c0,-2.14 -1.66,-4.57 -1.66,-7.52a6.68,6.68 0 0 1 1.06,-3.87a5,5 0 0 1 2.64,-1.91a4.34,4.34 0 0 1 2.22,-0.12c0.53,0.13 0.8,0.28 0.83,0.23s-0.22,-0.26 -0.75,-0.47a4.11,4.11 0 0 0 -2.42,-0.09a5.34,5.34 0 0 0 -3,2a7,7 0 0 0 -1.22,4.23a12.11,12.11 0 0 0 0.93,4.25a12.87,12.87 0 0 1 0.92,3.28a5.14,5.14 0 0 1 -0.67,3.01z"/>
  </g>
  <g id="freepik--Lines--inject-6">
   <path id="svg_163" fill="#f5f5f5" d="m249,268.88l-1.49,0l-4.36,0.06c-3.84,0.06 -9.5,0.21 -16.78,0.56s-16.18,1 -26.47,2.2c-5.13,0.62 -10.63,1.32 -16.42,2.28s-11.89,2.08 -18.24,3.53s-13,3.17 -19.72,5.38a131.66,131.66 0 0 0 -20.45,8.43a66,66 0 0 0 -9.8,6.27a31.23,31.23 0 0 0 -8,8.78c-0.25,0.44 -0.51,0.87 -0.74,1.32l-0.56,1.41l-0.29,0.71c-0.08,0.24 -0.12,0.49 -0.19,0.74l-0.35,1.48a14.84,14.84 0 0 0 0.3,6.11c1,4.05 3.65,7.54 6.72,10.48c6.26,5.89 14.25,10 22.54,13.42a185.79,185.79 0 0 0 26.27,8.31a345.78,345.78 0 0 0 57.33,8.44a457.19,457.19 0 0 0 58,0.23a365.74,365.74 0 0 0 53.56,-7a226.13,226.13 0 0 0 24.28,-6.55a120.57,120.57 0 0 0 21.71,-9.46a60.11,60.11 0 0 0 9.15,-6.51a26.42,26.42 0 0 0 6.62,-8.44l0.5,-1.22a7,7 0 0 0 0.42,-1.24l0.3,-1.26c0.05,-0.21 0.12,-0.42 0.15,-0.63l0,-0.65a12.56,12.56 0 0 0 -0.38,-5a17.71,17.71 0 0 0 -2.11,-4.51a27.28,27.28 0 0 0 -3.1,-3.81a46.52,46.52 0 0 0 -7.32,-6a75.43,75.43 0 0 0 -7.76,-4.62a133.43,133.43 0 0 0 -15.12,-6.74a230.43,230.43 0 0 0 -25.36,-7.82c-7.07,-1.76 -12.62,-2.88 -16.39,-3.6c-1.88,-0.37 -3.33,-0.61 -4.29,-0.8l-1.47,-0.28s2,0.29 5.78,1s9.33,1.77 16.42,3.51a224.91,224.91 0 0 1 25.41,7.74a133.69,133.69 0 0 1 15.18,6.71a77.14,77.14 0 0 1 7.8,4.63a47.08,47.08 0 0 1 7.39,6.07a28,28 0 0 1 3.14,3.85a18,18 0 0 1 2.19,4.61a13,13 0 0 1 0.4,5.2l-0.05,0.66c0,0.22 -0.1,0.43 -0.15,0.65l-0.31,1.29a7,7 0 0 1 -0.43,1.27l-0.5,1.25a26.93,26.93 0 0 1 -6.71,8.58a60,60 0 0 1 -9.22,6.58a120.9,120.9 0 0 1 -21.76,9.52a225.37,225.37 0 0 1 -24.33,6.59a365.45,365.45 0 0 1 -53.63,7a456.24,456.24 0 0 1 -58.07,-0.22a345.81,345.81 0 0 1 -57.42,-8.47a184.63,184.63 0 0 1 -26.34,-8.34c-8.31,-3.46 -16.34,-7.57 -22.68,-13.53c-3.11,-3 -5.84,-6.54 -6.85,-10.72a15.36,15.36 0 0 1 -0.3,-6.29l0.37,-1.53c0.06,-0.26 0.11,-0.51 0.19,-0.76l0.29,-0.73l0.59,-1.44c0.23,-0.46 0.5,-0.91 0.75,-1.36a31.72,31.72 0 0 1 8.15,-8.9a67.18,67.18 0 0 1 9.88,-6.3a131.21,131.21 0 0 1 20.52,-8.43c6.78,-2.2 13.4,-3.92 19.76,-5.36s12.48,-2.58 18.28,-3.49s11.3,-1.65 16.44,-2.25c10.3,-1.15 19.21,-1.76 26.49,-2.11s12.95,-0.44 16.79,-0.47l5.85,0l0,-0.01z"/>
   <path id="svg_164" fill="#f5f5f5" d="m167.28,193.11s-0.57,0.13 -1.68,0.35s-2.77,0.54 -4.94,1c-4.34,0.9 -10.73,2.29 -18.84,4.51a193.11,193.11 0 0 0 -28.82,10.21c-2.71,1.24 -5.49,2.61 -8.26,4.18a78.73,78.73 0 0 0 -8.29,5.32a46.34,46.34 0 0 0 -7.65,7a24.15,24.15 0 0 0 -5.19,9.52a17.44,17.44 0 0 0 0.83,11.19a28.76,28.76 0 0 0 6.92,9.69c5.92,5.67 13.43,10 21.42,13.67c16.11,7.32 34.5,12.23 54,15.89a451.63,451.63 0 0 0 62,6.84a534.73,534.73 0 0 0 67,-1.19c22.86,-1.91 45.11,-5.27 66.05,-10.77a197.65,197.65 0 0 0 30.08,-10.32a103.77,103.77 0 0 0 13.49,-7.2a51.89,51.89 0 0 0 11.45,-9.66c3.19,-3.73 5.54,-8.3 5.68,-13.12a13.33,13.33 0 0 0 -0.06,-1.79a13,13 0 0 0 -0.19,-1.77l-0.39,-1.74a12.78,12.78 0 0 0 -0.57,-1.68a25.43,25.43 0 0 0 -3.43,-6.13a47.14,47.14 0 0 0 -10.15,-9.37a92.91,92.91 0 0 0 -11.61,-6.79a164.65,164.65 0 0 0 -23.78,-9.33c-7.84,-2.45 -15.48,-4.4 -22.82,-6a439.42,439.42 0 0 0 -70.61,-9c-8.4,-0.43 -14.94,-0.45 -19.37,-0.56l-5,-0.11l-1.71,-0.06s0.58,0 1.71,0l5,0.06c4.43,0.08 11,0.06 19.38,0.47a434.72,434.72 0 0 1 70.68,8.85c7.35,1.62 15,3.55 22.86,6a163.64,163.64 0 0 1 23.85,9.34a92.12,92.12 0 0 1 11.68,6.74a47.71,47.71 0 0 1 10.25,9.45a25.72,25.72 0 0 1 3.5,6.25a11.59,11.59 0 0 1 0.58,1.72l0.41,1.78a12.2,12.2 0 0 1 0.19,1.82a12.45,12.45 0 0 1 0.07,1.83a18.65,18.65 0 0 1 -1.74,7.16a26.59,26.59 0 0 1 -4,6.26a52.06,52.06 0 0 1 -11.56,9.76a102.91,102.91 0 0 1 -13.65,7.3a199,199 0 0 1 -30.15,10.37c-21,5.51 -43.25,8.88 -66.14,10.79a533.74,533.74 0 0 1 -67,1.18a452.59,452.59 0 0 1 -62,-6.87c-19.55,-3.69 -38,-8.62 -54.12,-16c-8,-3.73 -15.55,-8.05 -21.52,-13.79a29.23,29.23 0 0 1 -7,-9.82a17.85,17.85 0 0 1 -0.82,-11.44a24.38,24.38 0 0 1 5.27,-9.64a46.25,46.25 0 0 1 7.73,-7.08a78.17,78.17 0 0 1 8.33,-5.32c2.78,-1.57 5.57,-2.94 8.29,-4.18a192.22,192.22 0 0 1 28.93,-10.13c8.13,-2.19 14.53,-3.55 18.88,-4.42s6.55,-1.22 6.55,-1.22z"/>
   <path id="svg_165" fill="#f5f5f5" d="m202.34,344l-5,0.79c-3.27,0.52 -8.08,1.35 -14.23,2.69a182.58,182.58 0 0 0 -22,6.21a104,104 0 0 0 -13.1,5.7a56,56 0 0 0 -6.64,4.06a34.34,34.34 0 0 0 -6.11,5.44a19.82,19.82 0 0 0 -2.42,3.48a13.91,13.91 0 0 0 -1.49,4c-0.05,0.36 -0.14,0.72 -0.17,1.09l-0.07,1.1c0,0.73 0.1,1.47 0.16,2.21a21.07,21.07 0 0 0 0.58,2.17l0.42,1.05l0.21,0.53l0.28,0.49a24.66,24.66 0 0 0 6,7.07a49.32,49.32 0 0 0 8.06,5.41a107.12,107.12 0 0 0 18.85,7.87a193.9,193.9 0 0 0 21,5.37a311.85,311.85 0 0 0 46.26,5.53a375.39,375.39 0 0 0 50,-0.87c17.08,-1.48 33.7,-4.09 49.27,-8.49a124.07,124.07 0 0 0 22.2,-8.46a55.88,55.88 0 0 0 9.65,-6.23c0.76,-0.57 1.41,-1.27 2.11,-1.9s1.27,-1.38 1.91,-2.06a18.14,18.14 0 0 0 2.84,-4.75a12.74,12.74 0 0 0 -0.44,-10.55a25.34,25.34 0 0 0 -6.88,-8c-5.51,-4.38 -11.77,-7.33 -17.88,-9.78a151.08,151.08 0 0 0 -18.19,-5.83c-5.94,-1.53 -11.71,-2.74 -17.24,-3.71a341.92,341.92 0 0 0 -53,-4.85l-19.53,-0.1s6.95,-0.09 19.53,0a338.68,338.68 0 0 1 53,4.75c5.55,1 11.32,2.17 17.27,3.7a150.33,150.33 0 0 1 18.28,5.87c6.12,2.45 12.4,5.4 17.95,9.81a25.65,25.65 0 0 1 7,8.11a13,13 0 0 1 0.45,10.77a18.67,18.67 0 0 1 -2.88,4.83c-0.65,0.69 -1.24,1.44 -1.94,2.09s-1.35,1.34 -2.12,1.91a55.83,55.83 0 0 1 -9.71,6.28a124.37,124.37 0 0 1 -22.25,8.49a266.93,266.93 0 0 1 -49.32,8.5a376.14,376.14 0 0 1 -50.06,0.87a313.55,313.55 0 0 1 -46.29,-5.55a196.21,196.21 0 0 1 -21,-5.4a106.21,106.21 0 0 1 -18.9,-7.9a50,50 0 0 1 -8.09,-5.45a24.73,24.73 0 0 1 -6.06,-7.15l-0.29,-0.5l-0.21,-0.54l-0.43,-1.06c-0.27,-0.72 -0.38,-1.48 -0.58,-2.21s-0.16,-1.51 -0.16,-2.26l0.07,-1.12c0,-0.37 0.12,-0.73 0.18,-1.1a14,14 0 0 1 1.51,-4.11a20.21,20.21 0 0 1 2.45,-3.51a34.32,34.32 0 0 1 6.15,-5.47a57.39,57.39 0 0 1 6.68,-4.07a102.61,102.61 0 0 1 13.02,-5.71a180.62,180.62 0 0 1 22.07,-6.17c6.15,-1.32 11,-2.13 14.24,-2.63s5.03,-0.75 5.03,-0.75z"/>
   <path id="svg_166" fill="#f5f5f5" d="m332.92,435.47a10.36,10.36 0 0 0 -0.83,-3.65c-0.93,-2.29 -3.42,-5.14 -7.33,-7.72c-7.85,-5.17 -21,-9.51 -37.52,-12.17a227.81,227.81 0 0 0 -27.24,-2.67a262.26,262.26 0 0 0 -31.45,0.58c-5.53,0.43 -11.18,1.07 -16.91,2a160,160 0 0 0 -17.36,3.67c-2.91,0.78 -5.82,1.69 -8.69,2.74a69.9,69.9 0 0 0 -8.49,3.7a34.34,34.34 0 0 0 -7.69,5.33c-2.27,2.12 -4.12,5 -4.17,8.2s1.89,6.08 4.16,8.21a34.3,34.3 0 0 0 7.6,5.31a68.37,68.37 0 0 0 8.49,3.7c2.87,1.06 5.78,2 8.69,2.75a160.14,160.14 0 0 0 17.37,3.67c5.73,0.91 11.38,1.55 16.91,2a260.36,260.36 0 0 0 31.46,0.58a227.84,227.84 0 0 0 27.32,-2.7c16.54,-2.66 29.67,-7 37.53,-12.17c3.91,-2.58 6.39,-5.43 7.32,-7.72a10.33,10.33 0 0 0 0.83,-3.64c0,0.15 0,0.4 -0.07,0.95a4.94,4.94 0 0 1 -0.21,1.16a7.35,7.35 0 0 1 -0.52,1.54c-0.92,2.31 -3.4,5.18 -7.31,7.78c-7.86,5.2 -21,9.57 -37.55,12.25a229.78,229.78 0 0 1 -27.3,2.7a262.65,262.65 0 0 1 -31.48,-0.56c-5.53,-0.44 -11.18,-1.07 -16.92,-2a157.58,157.58 0 0 1 -17.39,-3.66c-2.92,-0.78 -5.83,-1.69 -8.71,-2.75a71.06,71.06 0 0 1 -8.52,-3.71a34.89,34.89 0 0 1 -7.74,-5.36a15.53,15.53 0 0 1 -2.94,-3.75a9,9 0 0 1 0,-9.22a15.57,15.57 0 0 1 3,-3.74a34.89,34.89 0 0 1 7.74,-5.36a71.63,71.63 0 0 1 8.51,-3.71c2.89,-1.06 5.8,-2 8.72,-2.75a160.25,160.25 0 0 1 17.38,-3.66c5.74,-0.91 11.39,-1.55 16.92,-2a260.52,260.52 0 0 1 31.48,-0.56a227.8,227.8 0 0 1 27.3,2.69c16.54,2.68 29.69,7.05 37.55,12.25c3.91,2.6 6.39,5.47 7.31,7.78a7.55,7.55 0 0 1 0.52,1.54a4.94,4.94 0 0 1 0.21,1.16c-0.01,0.58 0.01,0.84 0.02,0.99z"/>
   <path id="svg_167" fill="#0466C8" d="m112,280.37a3.19,3.19 0 1 1 -3.19,-3.2a3.19,3.19 0 0 1 3.19,3.2z"/>
   <circle id="svg_168" fill="#0466C8" r="3.19" cy="282.53" cx="397.52"/>
   <path id="svg_169" fill="#0466C8" d="m270.5,400.17a3.2,3.2 0 1 1 -3.19,-3.19a3.19,3.19 0 0 1 3.19,3.19z"/>
   <path id="svg_170" fill="#0466C8" d="m173.55,318.13a1.6,1.6 0 1 1 -1.6,-1.6a1.6,1.6 0 0 1 1.6,1.6z"/>
   <path id="svg_171" fill="#0466C8" d="m372.06,356.81a1.6,1.6 0 1 1 -1.59,-1.6a1.6,1.6 0 0 1 1.59,1.6z"/>
   <path id="svg_172" fill="#0466C8" d="m246,430.64a1.6,1.6 0 1 1 -1.59,-1.6a1.6,1.6 0 0 1 1.59,1.6z"/>
   <circle id="svg_173" fill="#0466C8" r="0.8" cy="151.17" cx="162.72"/>
  </g>
  <g id="freepik--front-screens--inject-6">
   <path id="svg_174" fill="#0466C8" d="m305.65,274c-38.77,10.26 -76.14,9.48 -116.87,0l-4.78,-74.48c42.09,8.19 84.34,7.15 121.63,-1.76l0.02,76.24z"/>
   <g id="svg_175" opacity="0.8">
    <path id="svg_176" fill="#fff" d="m305.65,274c-38.77,10.26 -76.14,9.48 -116.87,0l-4.78,-74.48c42.09,8.19 84.34,7.15 121.63,-1.76l0.02,76.24z"/>
   </g>
   <path id="svg_177" fill="#0466C8" d="m299.64,262.65a1,1 0 0 1 -0.25,0.12l-0.73,0.31c-0.65,0.26 -1.59,0.68 -2.84,1.13a107.27,107.27 0 0 1 -10.73,3.36a140.27,140.27 0 0 1 -36.78,4.2a214.77,214.77 0 0 1 -36.86,-3.94c-4.67,-0.89 -8.42,-1.71 -11,-2.31c-1.29,-0.29 -2.29,-0.54 -3,-0.71l-0.77,-0.2c-0.17,-0.05 -0.26,-0.08 -0.25,-0.09l0.27,0l0.78,0.15l3,0.61c2.59,0.54 6.36,1.31 11,2.14a226.31,226.31 0 0 0 36.8,3.79a145,145 0 0 0 36.69,-4c4.59,-1.16 8.25,-2.32 10.75,-3.21c1.26,-0.41 2.21,-0.8 2.87,-1l0.75,-0.26a0.75,0.75 0 0 1 0.3,-0.09z"/>
   <path id="svg_178" fill="#0466C8" d="m242.67,265.68a25.39,25.39 0 0 1 -14.92,-0.5l0,-26.5a37.48,37.48 0 0 1 14.92,0l0,27z"/>
   <path id="svg_179" fill="#0466C8" d="m266.77,264.11a1.07,1.07 0 0 1 0,-0.21c0,-0.15 0,-0.34 0,-0.57c0,-0.54 0,-1.28 -0.07,-2.22c0,-1.95 -0.09,-4.74 -0.16,-8.23c-0.1,-7 -0.25,-16.87 -0.42,-28.28l0.2,0.24a40.33,40.33 0 0 0 -15.45,0l0.21,-0.25l0,0.52c0.16,15.66 0.31,29.81 0.41,39.91l-0.15,-0.18a35.76,35.76 0 0 0 6.51,0.8a24.47,24.47 0 0 0 4.91,-0.41a23,23 0 0 0 3,-0.79l0.75,-0.26a1.07,1.07 0 0 1 0.28,-0.08l-0.24,0.11l-0.76,0.33a21.16,21.16 0 0 1 -3,0.89a23.47,23.47 0 0 1 -4.95,0.49a34.16,34.16 0 0 1 -6.58,-0.72l-0.14,0l0,-0.2c-0.15,-10.1 -0.35,-24.24 -0.57,-39.9l0,-0.75l0.22,0a40.31,40.31 0 0 1 15.64,0l0.2,0.05l0,0.2c0.09,11.46 0.16,21.35 0.22,28.41c0,3.47 0,6.24 0,8.19c0,0.92 0,1.64 0,2.17c0,0.22 0,0.41 0,0.56s-0.05,0.18 -0.06,0.18z"/>
   <path id="svg_180" fill="#0466C8" d="m289.71,261c-4,2.16 -9.25,2.45 -14.93,2.12l0,-43.78a31.92,31.92 0 0 1 14.93,0l0,41.66z"/>
   <path id="svg_181" fill="#0466C8" d="m219,263.52s0,-0.41 -0.05,-1.13s0,-1.79 -0.06,-3.06c0,-2.66 -0.07,-6.35 -0.11,-10.74l0.14,0.21a33.36,33.36 0 0 0 -14.37,-2.39l0,0l0.24,-0.26c0,5.47 0,10.58 0,14.93l-0.13,-0.2a27.89,27.89 0 0 0 5.76,1.64c1.77,0.32 3.32,0.5 4.61,0.63l3,0.25a9.39,9.39 0 0 1 1.06,0.12a7.9,7.9 0 0 1 -1.06,0c-0.7,0 -1.71,0 -3,-0.13s-2.86,-0.24 -4.64,-0.53a26.76,26.76 0 0 1 -5.88,-1.59l-0.13,-0.06l0,-0.15c0,-4.35 0,-9.46 0,-14.93l0,-0.24l0.26,0a33.13,33.13 0 0 1 14.58,2.49l0.15,0.05l0,0.16c0,4.45 -0.09,8.19 -0.12,10.89c0,1.25 0,2.25 -0.06,3a6,6 0 0 1 -0.19,1.04z"/>
   <path id="svg_182" fill="#0466C8" d="m226,224.79a15,15 0 0 1 -2.92,0.18c-1.81,0 -4.31,0 -7.06,-0.17s-5.23,-0.42 -7,-0.66a14.77,14.77 0 0 1 -2.88,-0.52a18.33,18.33 0 0 1 2.91,0.16c1.8,0.14 4.28,0.34 7,0.5s5.23,0.26 7,0.32a19.44,19.44 0 0 1 2.95,0.19z"/>
   <path id="svg_183" fill="#0466C8" d="m223.77,228.05a12.86,12.86 0 0 1 -2.56,0c-1.58,-0.08 -3.76,-0.22 -6.17,-0.4s-4.59,-0.38 -6.16,-0.55a12.67,12.67 0 0 1 -2.53,-0.38a12.86,12.86 0 0 1 2.56,0c1.59,0.08 3.76,0.22 6.17,0.4s4.58,0.38 6.15,0.55a13.07,13.07 0 0 1 2.54,0.38z"/>
   <path id="svg_184" fill="#0466C8" d="m229.23,232.32s0,-0.34 0,-0.93s0.05,-1.5 0.1,-2.58c0.1,-2.26 0.25,-5.44 0.44,-9.35l0.19,0.21a213.7,213.7 0 0 1 -27.63,-1.54l0.29,-0.24l0,0l0,0.4l0,0.42l-0.05,0.84c0,0.56 -0.06,1.12 -0.1,1.67c-0.06,1.11 -0.12,2.2 -0.19,3.27c-0.13,2.15 -0.25,4.23 -0.37,6.22l-0.21,-0.26c8,1 14.89,1.4 19.78,1.59l5.73,0.17l1.5,0.05l0.55,0a2.9,2.9 0 0 1 -0.5,0c-0.34,0 -0.88,0 -1.55,0.05c-1.34,0 -3.29,0 -5.74,0c-4.9,-0.1 -11.82,-0.46 -19.83,-1.41l-0.23,0l0,-0.24c0.11,-2 0.23,-4.07 0.35,-6.22c0.06,-1.07 0.12,-2.16 0.19,-3.27l0.09,-1.67l0,-0.84l0,-0.42l0,-0.4l0,0l0.29,-0.24a236,236 0 0 0 27.67,1.69l0.2,0l0,0.2c-0.27,3.94 -0.49,7.16 -0.65,9.44c-0.08,1.06 -0.15,1.91 -0.2,2.53a4.45,4.45 0 0 1 -0.12,0.86z"/>
   <path id="svg_185" fill="#0466C8" d="m232.64,237.93a11.83,11.83 0 0 1 -1.93,-2.67a9.57,9.57 0 0 1 -1.48,-2.94a11.83,11.83 0 0 1 1.93,2.67a9.57,9.57 0 0 1 1.48,2.94z"/>
   <path id="svg_186" fill="#0466C8" d="m70.64,141l12.67,76.68s19.35,36.22 70.75,44.38l-8.29,-68.44s-47.54,-14.72 -75.13,-52.62z"/>
   <g id="svg_187" opacity="0.8">
    <path id="svg_188" fill="#fff" d="m70.64,141l12.67,76.68s19.35,36.22 70.75,44.38l-8.29,-68.44s-47.54,-14.72 -75.13,-52.62z"/>
   </g>
   <path id="svg_189" fill="#0466C8" d="m147.43,256.58l-0.32,-0.08l-1,-0.27l-3.62,-1.11c-1.57,-0.5 -3.52,-1 -5.69,-1.9l-3.49,-1.33c-1.25,-0.47 -2.56,-1 -3.89,-1.6c-2.67,-1.22 -5.64,-2.48 -8.66,-4.18s-6.24,-3.53 -9.52,-5.62a95.31,95.31 0 0 1 -19.1,-16.55a56.64,56.64 0 0 1 -6.89,-9.61l0,0l0,0l-5.8,-37.5c-0.7,-4.68 -1.27,-8.43 -1.66,-11.06l-0.42,-3l-0.1,-0.77a1.09,1.09 0 0 1 0,-0.27a1,1 0 0 1 0.06,0.26l0.15,0.77l0.51,3c0.43,2.62 1,6.37 1.81,11c1.5,9.42 3.6,22.54 6,37.47l0,-0.07a57.26,57.26 0 0 0 6.82,9.5a96,96 0 0 0 19,16.49c3.26,2.1 6.37,4.07 9.45,5.64s5.95,3 8.61,4.22c1.32,0.65 2.63,1.16 3.86,1.63l3.46,1.36c2.15,0.91 4.09,1.45 5.64,2l3.59,1.2l0.93,0.32a1.36,1.36 0 0 1 0.27,0.06z"/>
   <path id="svg_190" fill="#0466C8" d="m142.91,234.32s0,0.06 -0.17,0.16l-0.55,0.44l-2.13,1.66l-8.06,6.19l-0.12,0.1l-0.1,-0.14c-2.72,-3.75 -6.07,-8.39 -9.87,-13.66l0.3,0.05l-7.57,5.4l-0.25,0.18l-0.11,-0.3c-3,-8 -6.27,-17 -9.76,-26.47l-1.4,-3.81l0.47,0l-6.16,12.24l-0.27,0.53l-0.19,-0.56c-5.37,-15.46 -9.92,-28.6 -12.88,-37.13l0.27,0c-0.81,3.42 -1.45,6.11 -1.89,8c-0.22,0.9 -0.4,1.6 -0.52,2.1l-0.14,0.54a0.62,0.62 0 0 1 -0.07,0.18l0,-0.19c0,-0.14 0.06,-0.32 0.1,-0.54l0.45,-2.12c0.41,-1.89 1,-4.59 1.76,-8l0.11,-0.48l0.17,0.47c3,8.51 7.63,21.62 13.08,37.05l-0.46,0l6.15,-12.24l0.27,-0.54l0.21,0.56l1.4,3.81c3.47,9.48 6.77,18.47 9.71,26.49l-0.36,-0.11l7.6,-5.36l0.17,-0.12l0.13,0.17l9.77,13.68l-0.23,0l8.17,-6.07l2.18,-1.6l0.57,-0.4l0.22,-0.16z"/>
   <path id="svg_191" fill="#0466C8" d="m141.14,197.55a4.68,4.68 0 0 1 -1.08,-0.24c-0.68,-0.19 -1.67,-0.49 -2.87,-0.89a94,94 0 0 1 -9.19,-3.62a98.07,98.07 0 0 1 -8.83,-4.53c-1.09,-0.64 -2,-1.18 -2.56,-1.57a4.53,4.53 0 0 1 -0.89,-0.65a4.64,4.64 0 0 1 1,0.48l2.64,1.42c2.23,1.19 5.34,2.79 8.86,4.38s6.77,2.86 9.14,3.75c1.11,0.4 2,0.75 2.81,1a4,4 0 0 1 0.97,0.47z"/>
   <path id="svg_192" fill="#0466C8" d="m143.18,200.73a10.35,10.35 0 0 1 -2.48,-0.44a57.41,57.41 0 0 1 -5.83,-1.74a58.17,58.17 0 0 1 -5.61,-2.35a10.75,10.75 0 0 1 -2.19,-1.23a13.68,13.68 0 0 1 2.35,0.9c1.43,0.59 3.41,1.39 5.63,2.19s4.26,1.43 5.75,1.88a13.64,13.64 0 0 1 2.38,0.79z"/>
   <path id="svg_193" fill="#0466C8" d="m122.93,229.09c0,0.64 -0.39,1.15 -0.87,1.15s-0.86,-0.51 -0.86,-1.15s0.39,-1.15 0.86,-1.15s0.87,0.52 0.87,1.15z"/>
   <ellipse id="svg_194" fill="#0466C8" ry="1.15" rx="0.86" cy="204.85" cx="103.26"/>
   <path id="svg_195" fill="#0466C8" d="m85.13,179.56c0,0.63 -0.39,1.15 -0.86,1.15s-0.86,-0.52 -0.86,-1.15s0.38,-1.15 0.86,-1.15s0.86,0.52 0.86,1.15z"/>
   <path id="svg_196" fill="#0466C8" d="m406,154.64l-6.35,77.9s-18.57,33.31 -69.65,34.58l6.31,-78.43s44.57,-1.81 69.69,-34.05z"/>
   <path id="svg_197" fill="#0466C8" d="m405,150.58c-1.66,-5.39 -5.7,-13.08 -15.3,-14.68l-11.32,104.78s21.31,-4.25 21.88,-15.93c0.05,-1 4.31,-53.09 5.38,-66a21.11,21.11 0 0 0 -0.64,-8.17z"/>
   <g id="svg_198" opacity="0.8">
    <path id="svg_199" fill="#fff" d="m406,154.64l-6.35,77.9s-18.57,33.31 -69.65,34.58l6.31,-78.43s44.57,-1.81 69.69,-34.05z"/>
   </g>
   <path id="svg_200" fill="#0466C8" d="m404.45,174.5a46.14,46.14 0 0 0 -8.13,25.19c-0.05,2.59 0.1,5.26 -0.89,7.65s-3.55,4.39 -6,3.71s-3.77,-3.8 -6.05,-5.24a6.75,6.75 0 0 0 -6.85,0.15a11.53,11.53 0 0 0 -4.5,5.47c-1.85,4.27 -2,9.09 -3.34,13.54s-4.72,8.94 -9.38,9.14c-1.7,0.07 -3.38,-0.44 -5.08,-0.39c-3.59,0.11 -6.71,2.78 -8.38,6s-2.18,6.83 -2.66,10.39c0,0 27.22,2.6 57.77,-33.48l3.49,-42.13z"/>
   <path id="svg_201" fill="#0466C8" d="m361.18,221.75c0,1 -0.48,1.75 -1.07,1.75s-1.06,-0.78 -1.06,-1.75s0.47,-1.75 1.06,-1.75s1.07,0.79 1.07,1.75z"/>
   <path id="svg_202" fill="#0466C8" d="m374,189.37c0,1 -0.48,1.75 -1.07,1.75s-1.06,-0.79 -1.06,-1.75s0.47,-1.75 1.06,-1.75s1.07,0.78 1.07,1.75z"/>
   <path id="svg_203" fill="#0466C8" d="m403.84,178.26a2.4,2.4 0 0 1 -0.17,0.44l-0.58,1.27c-0.54,1.13 -1.29,2.73 -2.24,4.75l-8.12,16.91l-0.11,0.23l-0.22,-0.14l-19.25,-12.18l0.38,-0.12c-0.25,0.62 -0.53,1.29 -0.8,2l-12.43,30.41l-0.09,0.21l-0.19,-0.11c-4.8,-2.7 -8.72,-4.87 -11.44,-6.35c-1.37,-0.74 -2.43,-1.31 -3.16,-1.68l-0.83,-0.4l-0.29,-0.13a23.22,23.22 0 0 1 4.38,2c2.76,1.42 6.7,3.54 11.53,6.2l-0.28,0.1l12.32,-30.49c0.27,-0.67 0.55,-1.34 0.8,-2l0.12,-0.29l0.26,0.17l19.22,12.24l-0.33,0.09c3.41,-6.93 6.27,-12.72 8.29,-16.82l2.39,-4.67l0.64,-1.23a2.77,2.77 0 0 1 0.2,-0.41z"/>
  </g>
 </g>

</svg>